G04 #@! TF.GenerationSoftware,KiCad,Pcbnew,5.1.0-060a0da~80~ubuntu16.04.1*
G04 #@! TF.CreationDate,2019-04-09T13:02:11+02:00*
G04 #@! TF.ProjectId,74HC165 Breakout,37344843-3136-4352-9042-7265616b6f75,rev?*
G04 #@! TF.SameCoordinates,Original*
G04 #@! TF.FileFunction,Soldermask,Bot*
G04 #@! TF.FilePolarity,Negative*
%FSLAX46Y46*%
G04 Gerber Fmt 4.6, Leading zero omitted, Abs format (unit mm)*
G04 Created by KiCad (PCBNEW 5.1.0-060a0da~80~ubuntu16.04.1) date 2019-04-09 13:02:11*
%MOMM*%
%LPD*%
G04 APERTURE LIST*
%ADD10C,0.100000*%
G04 APERTURE END LIST*
D10*
G36*
X130111000Y-129161000D02*
G01*
X128309000Y-129161000D01*
X128309000Y-127359000D01*
X130111000Y-127359000D01*
X130111000Y-129161000D01*
X130111000Y-129161000D01*
G37*
G36*
X175831000Y-129161000D02*
G01*
X174029000Y-129161000D01*
X174029000Y-127359000D01*
X175831000Y-127359000D01*
X175831000Y-129161000D01*
X175831000Y-129161000D01*
G37*
G36*
X103920442Y-127365518D02*
G01*
X103986627Y-127372037D01*
X104156466Y-127423557D01*
X104312991Y-127507222D01*
X104348729Y-127536552D01*
X104450186Y-127619814D01*
X104533448Y-127721271D01*
X104562778Y-127757009D01*
X104646443Y-127913534D01*
X104697963Y-128083373D01*
X104715359Y-128260000D01*
X104697963Y-128436627D01*
X104646443Y-128606466D01*
X104562778Y-128762991D01*
X104533448Y-128798729D01*
X104450186Y-128900186D01*
X104348729Y-128983448D01*
X104312991Y-129012778D01*
X104156466Y-129096443D01*
X103986627Y-129147963D01*
X103920442Y-129154482D01*
X103854260Y-129161000D01*
X103765740Y-129161000D01*
X103699558Y-129154482D01*
X103633373Y-129147963D01*
X103463534Y-129096443D01*
X103307009Y-129012778D01*
X103271271Y-128983448D01*
X103169814Y-128900186D01*
X103086552Y-128798729D01*
X103057222Y-128762991D01*
X102973557Y-128606466D01*
X102922037Y-128436627D01*
X102904641Y-128260000D01*
X102922037Y-128083373D01*
X102973557Y-127913534D01*
X103057222Y-127757009D01*
X103086552Y-127721271D01*
X103169814Y-127619814D01*
X103271271Y-127536552D01*
X103307009Y-127507222D01*
X103463534Y-127423557D01*
X103633373Y-127372037D01*
X103699558Y-127365518D01*
X103765740Y-127359000D01*
X103854260Y-127359000D01*
X103920442Y-127365518D01*
X103920442Y-127365518D01*
G37*
G36*
X152971000Y-129161000D02*
G01*
X151169000Y-129161000D01*
X151169000Y-127359000D01*
X152971000Y-127359000D01*
X152971000Y-129161000D01*
X152971000Y-129161000D01*
G37*
G36*
X198691000Y-129161000D02*
G01*
X196889000Y-129161000D01*
X196889000Y-127359000D01*
X198691000Y-127359000D01*
X198691000Y-129161000D01*
X198691000Y-129161000D01*
G37*
G36*
X152180443Y-124825519D02*
G01*
X152246627Y-124832037D01*
X152416466Y-124883557D01*
X152572991Y-124967222D01*
X152608729Y-124996552D01*
X152710186Y-125079814D01*
X152793448Y-125181271D01*
X152822778Y-125217009D01*
X152906443Y-125373534D01*
X152957963Y-125543373D01*
X152975359Y-125720000D01*
X152957963Y-125896627D01*
X152906443Y-126066466D01*
X152822778Y-126222991D01*
X152793448Y-126258729D01*
X152710186Y-126360186D01*
X152608729Y-126443448D01*
X152572991Y-126472778D01*
X152416466Y-126556443D01*
X152246627Y-126607963D01*
X152180442Y-126614482D01*
X152114260Y-126621000D01*
X152025740Y-126621000D01*
X151959558Y-126614482D01*
X151893373Y-126607963D01*
X151723534Y-126556443D01*
X151567009Y-126472778D01*
X151531271Y-126443448D01*
X151429814Y-126360186D01*
X151346552Y-126258729D01*
X151317222Y-126222991D01*
X151233557Y-126066466D01*
X151182037Y-125896627D01*
X151164641Y-125720000D01*
X151182037Y-125543373D01*
X151233557Y-125373534D01*
X151317222Y-125217009D01*
X151346552Y-125181271D01*
X151429814Y-125079814D01*
X151531271Y-124996552D01*
X151567009Y-124967222D01*
X151723534Y-124883557D01*
X151893373Y-124832037D01*
X151959557Y-124825519D01*
X152025740Y-124819000D01*
X152114260Y-124819000D01*
X152180443Y-124825519D01*
X152180443Y-124825519D01*
G37*
G36*
X197900443Y-124825519D02*
G01*
X197966627Y-124832037D01*
X198136466Y-124883557D01*
X198292991Y-124967222D01*
X198328729Y-124996552D01*
X198430186Y-125079814D01*
X198513448Y-125181271D01*
X198542778Y-125217009D01*
X198626443Y-125373534D01*
X198677963Y-125543373D01*
X198695359Y-125720000D01*
X198677963Y-125896627D01*
X198626443Y-126066466D01*
X198542778Y-126222991D01*
X198513448Y-126258729D01*
X198430186Y-126360186D01*
X198328729Y-126443448D01*
X198292991Y-126472778D01*
X198136466Y-126556443D01*
X197966627Y-126607963D01*
X197900442Y-126614482D01*
X197834260Y-126621000D01*
X197745740Y-126621000D01*
X197679558Y-126614482D01*
X197613373Y-126607963D01*
X197443534Y-126556443D01*
X197287009Y-126472778D01*
X197251271Y-126443448D01*
X197149814Y-126360186D01*
X197066552Y-126258729D01*
X197037222Y-126222991D01*
X196953557Y-126066466D01*
X196902037Y-125896627D01*
X196884641Y-125720000D01*
X196902037Y-125543373D01*
X196953557Y-125373534D01*
X197037222Y-125217009D01*
X197066552Y-125181271D01*
X197149814Y-125079814D01*
X197251271Y-124996552D01*
X197287009Y-124967222D01*
X197443534Y-124883557D01*
X197613373Y-124832037D01*
X197679557Y-124825519D01*
X197745740Y-124819000D01*
X197834260Y-124819000D01*
X197900443Y-124825519D01*
X197900443Y-124825519D01*
G37*
G36*
X104711000Y-126621000D02*
G01*
X102909000Y-126621000D01*
X102909000Y-124819000D01*
X104711000Y-124819000D01*
X104711000Y-126621000D01*
X104711000Y-126621000D01*
G37*
G36*
X175040443Y-124825519D02*
G01*
X175106627Y-124832037D01*
X175276466Y-124883557D01*
X175432991Y-124967222D01*
X175468729Y-124996552D01*
X175570186Y-125079814D01*
X175653448Y-125181271D01*
X175682778Y-125217009D01*
X175766443Y-125373534D01*
X175817963Y-125543373D01*
X175835359Y-125720000D01*
X175817963Y-125896627D01*
X175766443Y-126066466D01*
X175682778Y-126222991D01*
X175653448Y-126258729D01*
X175570186Y-126360186D01*
X175468729Y-126443448D01*
X175432991Y-126472778D01*
X175276466Y-126556443D01*
X175106627Y-126607963D01*
X175040442Y-126614482D01*
X174974260Y-126621000D01*
X174885740Y-126621000D01*
X174819558Y-126614482D01*
X174753373Y-126607963D01*
X174583534Y-126556443D01*
X174427009Y-126472778D01*
X174391271Y-126443448D01*
X174289814Y-126360186D01*
X174206552Y-126258729D01*
X174177222Y-126222991D01*
X174093557Y-126066466D01*
X174042037Y-125896627D01*
X174024641Y-125720000D01*
X174042037Y-125543373D01*
X174093557Y-125373534D01*
X174177222Y-125217009D01*
X174206552Y-125181271D01*
X174289814Y-125079814D01*
X174391271Y-124996552D01*
X174427009Y-124967222D01*
X174583534Y-124883557D01*
X174753373Y-124832037D01*
X174819557Y-124825519D01*
X174885740Y-124819000D01*
X174974260Y-124819000D01*
X175040443Y-124825519D01*
X175040443Y-124825519D01*
G37*
G36*
X129320443Y-124825519D02*
G01*
X129386627Y-124832037D01*
X129556466Y-124883557D01*
X129712991Y-124967222D01*
X129748729Y-124996552D01*
X129850186Y-125079814D01*
X129933448Y-125181271D01*
X129962778Y-125217009D01*
X130046443Y-125373534D01*
X130097963Y-125543373D01*
X130115359Y-125720000D01*
X130097963Y-125896627D01*
X130046443Y-126066466D01*
X129962778Y-126222991D01*
X129933448Y-126258729D01*
X129850186Y-126360186D01*
X129748729Y-126443448D01*
X129712991Y-126472778D01*
X129556466Y-126556443D01*
X129386627Y-126607963D01*
X129320442Y-126614482D01*
X129254260Y-126621000D01*
X129165740Y-126621000D01*
X129099558Y-126614482D01*
X129033373Y-126607963D01*
X128863534Y-126556443D01*
X128707009Y-126472778D01*
X128671271Y-126443448D01*
X128569814Y-126360186D01*
X128486552Y-126258729D01*
X128457222Y-126222991D01*
X128373557Y-126066466D01*
X128322037Y-125896627D01*
X128304641Y-125720000D01*
X128322037Y-125543373D01*
X128373557Y-125373534D01*
X128457222Y-125217009D01*
X128486552Y-125181271D01*
X128569814Y-125079814D01*
X128671271Y-124996552D01*
X128707009Y-124967222D01*
X128863534Y-124883557D01*
X129033373Y-124832037D01*
X129099557Y-124825519D01*
X129165740Y-124819000D01*
X129254260Y-124819000D01*
X129320443Y-124825519D01*
X129320443Y-124825519D01*
G37*
G36*
X129320442Y-122285518D02*
G01*
X129386627Y-122292037D01*
X129556466Y-122343557D01*
X129712991Y-122427222D01*
X129748729Y-122456552D01*
X129850186Y-122539814D01*
X129933448Y-122641271D01*
X129962778Y-122677009D01*
X130046443Y-122833534D01*
X130097963Y-123003373D01*
X130115359Y-123180000D01*
X130097963Y-123356627D01*
X130046443Y-123526466D01*
X129962778Y-123682991D01*
X129933448Y-123718729D01*
X129850186Y-123820186D01*
X129748729Y-123903448D01*
X129712991Y-123932778D01*
X129556466Y-124016443D01*
X129386627Y-124067963D01*
X129320443Y-124074481D01*
X129254260Y-124081000D01*
X129165740Y-124081000D01*
X129099557Y-124074481D01*
X129033373Y-124067963D01*
X128863534Y-124016443D01*
X128707009Y-123932778D01*
X128671271Y-123903448D01*
X128569814Y-123820186D01*
X128486552Y-123718729D01*
X128457222Y-123682991D01*
X128373557Y-123526466D01*
X128322037Y-123356627D01*
X128304641Y-123180000D01*
X128322037Y-123003373D01*
X128373557Y-122833534D01*
X128457222Y-122677009D01*
X128486552Y-122641271D01*
X128569814Y-122539814D01*
X128671271Y-122456552D01*
X128707009Y-122427222D01*
X128863534Y-122343557D01*
X129033373Y-122292037D01*
X129099558Y-122285518D01*
X129165740Y-122279000D01*
X129254260Y-122279000D01*
X129320442Y-122285518D01*
X129320442Y-122285518D01*
G37*
G36*
X197900442Y-122285518D02*
G01*
X197966627Y-122292037D01*
X198136466Y-122343557D01*
X198292991Y-122427222D01*
X198328729Y-122456552D01*
X198430186Y-122539814D01*
X198513448Y-122641271D01*
X198542778Y-122677009D01*
X198626443Y-122833534D01*
X198677963Y-123003373D01*
X198695359Y-123180000D01*
X198677963Y-123356627D01*
X198626443Y-123526466D01*
X198542778Y-123682991D01*
X198513448Y-123718729D01*
X198430186Y-123820186D01*
X198328729Y-123903448D01*
X198292991Y-123932778D01*
X198136466Y-124016443D01*
X197966627Y-124067963D01*
X197900443Y-124074481D01*
X197834260Y-124081000D01*
X197745740Y-124081000D01*
X197679557Y-124074481D01*
X197613373Y-124067963D01*
X197443534Y-124016443D01*
X197287009Y-123932778D01*
X197251271Y-123903448D01*
X197149814Y-123820186D01*
X197066552Y-123718729D01*
X197037222Y-123682991D01*
X196953557Y-123526466D01*
X196902037Y-123356627D01*
X196884641Y-123180000D01*
X196902037Y-123003373D01*
X196953557Y-122833534D01*
X197037222Y-122677009D01*
X197066552Y-122641271D01*
X197149814Y-122539814D01*
X197251271Y-122456552D01*
X197287009Y-122427222D01*
X197443534Y-122343557D01*
X197613373Y-122292037D01*
X197679558Y-122285518D01*
X197745740Y-122279000D01*
X197834260Y-122279000D01*
X197900442Y-122285518D01*
X197900442Y-122285518D01*
G37*
G36*
X175040442Y-122285518D02*
G01*
X175106627Y-122292037D01*
X175276466Y-122343557D01*
X175432991Y-122427222D01*
X175468729Y-122456552D01*
X175570186Y-122539814D01*
X175653448Y-122641271D01*
X175682778Y-122677009D01*
X175766443Y-122833534D01*
X175817963Y-123003373D01*
X175835359Y-123180000D01*
X175817963Y-123356627D01*
X175766443Y-123526466D01*
X175682778Y-123682991D01*
X175653448Y-123718729D01*
X175570186Y-123820186D01*
X175468729Y-123903448D01*
X175432991Y-123932778D01*
X175276466Y-124016443D01*
X175106627Y-124067963D01*
X175040443Y-124074481D01*
X174974260Y-124081000D01*
X174885740Y-124081000D01*
X174819557Y-124074481D01*
X174753373Y-124067963D01*
X174583534Y-124016443D01*
X174427009Y-123932778D01*
X174391271Y-123903448D01*
X174289814Y-123820186D01*
X174206552Y-123718729D01*
X174177222Y-123682991D01*
X174093557Y-123526466D01*
X174042037Y-123356627D01*
X174024641Y-123180000D01*
X174042037Y-123003373D01*
X174093557Y-122833534D01*
X174177222Y-122677009D01*
X174206552Y-122641271D01*
X174289814Y-122539814D01*
X174391271Y-122456552D01*
X174427009Y-122427222D01*
X174583534Y-122343557D01*
X174753373Y-122292037D01*
X174819558Y-122285518D01*
X174885740Y-122279000D01*
X174974260Y-122279000D01*
X175040442Y-122285518D01*
X175040442Y-122285518D01*
G37*
G36*
X152180442Y-122285518D02*
G01*
X152246627Y-122292037D01*
X152416466Y-122343557D01*
X152572991Y-122427222D01*
X152608729Y-122456552D01*
X152710186Y-122539814D01*
X152793448Y-122641271D01*
X152822778Y-122677009D01*
X152906443Y-122833534D01*
X152957963Y-123003373D01*
X152975359Y-123180000D01*
X152957963Y-123356627D01*
X152906443Y-123526466D01*
X152822778Y-123682991D01*
X152793448Y-123718729D01*
X152710186Y-123820186D01*
X152608729Y-123903448D01*
X152572991Y-123932778D01*
X152416466Y-124016443D01*
X152246627Y-124067963D01*
X152180443Y-124074481D01*
X152114260Y-124081000D01*
X152025740Y-124081000D01*
X151959557Y-124074481D01*
X151893373Y-124067963D01*
X151723534Y-124016443D01*
X151567009Y-123932778D01*
X151531271Y-123903448D01*
X151429814Y-123820186D01*
X151346552Y-123718729D01*
X151317222Y-123682991D01*
X151233557Y-123526466D01*
X151182037Y-123356627D01*
X151164641Y-123180000D01*
X151182037Y-123003373D01*
X151233557Y-122833534D01*
X151317222Y-122677009D01*
X151346552Y-122641271D01*
X151429814Y-122539814D01*
X151531271Y-122456552D01*
X151567009Y-122427222D01*
X151723534Y-122343557D01*
X151893373Y-122292037D01*
X151959558Y-122285518D01*
X152025740Y-122279000D01*
X152114260Y-122279000D01*
X152180442Y-122285518D01*
X152180442Y-122285518D01*
G37*
G36*
X175040442Y-119745518D02*
G01*
X175106627Y-119752037D01*
X175276466Y-119803557D01*
X175432991Y-119887222D01*
X175468729Y-119916552D01*
X175570186Y-119999814D01*
X175653448Y-120101271D01*
X175682778Y-120137009D01*
X175766443Y-120293534D01*
X175817963Y-120463373D01*
X175835359Y-120640000D01*
X175817963Y-120816627D01*
X175766443Y-120986466D01*
X175682778Y-121142991D01*
X175653448Y-121178729D01*
X175570186Y-121280186D01*
X175468729Y-121363448D01*
X175432991Y-121392778D01*
X175276466Y-121476443D01*
X175106627Y-121527963D01*
X175040442Y-121534482D01*
X174974260Y-121541000D01*
X174885740Y-121541000D01*
X174819558Y-121534482D01*
X174753373Y-121527963D01*
X174583534Y-121476443D01*
X174427009Y-121392778D01*
X174391271Y-121363448D01*
X174289814Y-121280186D01*
X174206552Y-121178729D01*
X174177222Y-121142991D01*
X174093557Y-120986466D01*
X174042037Y-120816627D01*
X174024641Y-120640000D01*
X174042037Y-120463373D01*
X174093557Y-120293534D01*
X174177222Y-120137009D01*
X174206552Y-120101271D01*
X174289814Y-119999814D01*
X174391271Y-119916552D01*
X174427009Y-119887222D01*
X174583534Y-119803557D01*
X174753373Y-119752037D01*
X174819558Y-119745518D01*
X174885740Y-119739000D01*
X174974260Y-119739000D01*
X175040442Y-119745518D01*
X175040442Y-119745518D01*
G37*
G36*
X129320442Y-119745518D02*
G01*
X129386627Y-119752037D01*
X129556466Y-119803557D01*
X129712991Y-119887222D01*
X129748729Y-119916552D01*
X129850186Y-119999814D01*
X129933448Y-120101271D01*
X129962778Y-120137009D01*
X130046443Y-120293534D01*
X130097963Y-120463373D01*
X130115359Y-120640000D01*
X130097963Y-120816627D01*
X130046443Y-120986466D01*
X129962778Y-121142991D01*
X129933448Y-121178729D01*
X129850186Y-121280186D01*
X129748729Y-121363448D01*
X129712991Y-121392778D01*
X129556466Y-121476443D01*
X129386627Y-121527963D01*
X129320442Y-121534482D01*
X129254260Y-121541000D01*
X129165740Y-121541000D01*
X129099558Y-121534482D01*
X129033373Y-121527963D01*
X128863534Y-121476443D01*
X128707009Y-121392778D01*
X128671271Y-121363448D01*
X128569814Y-121280186D01*
X128486552Y-121178729D01*
X128457222Y-121142991D01*
X128373557Y-120986466D01*
X128322037Y-120816627D01*
X128304641Y-120640000D01*
X128322037Y-120463373D01*
X128373557Y-120293534D01*
X128457222Y-120137009D01*
X128486552Y-120101271D01*
X128569814Y-119999814D01*
X128671271Y-119916552D01*
X128707009Y-119887222D01*
X128863534Y-119803557D01*
X129033373Y-119752037D01*
X129099558Y-119745518D01*
X129165740Y-119739000D01*
X129254260Y-119739000D01*
X129320442Y-119745518D01*
X129320442Y-119745518D01*
G37*
G36*
X152180442Y-119745518D02*
G01*
X152246627Y-119752037D01*
X152416466Y-119803557D01*
X152572991Y-119887222D01*
X152608729Y-119916552D01*
X152710186Y-119999814D01*
X152793448Y-120101271D01*
X152822778Y-120137009D01*
X152906443Y-120293534D01*
X152957963Y-120463373D01*
X152975359Y-120640000D01*
X152957963Y-120816627D01*
X152906443Y-120986466D01*
X152822778Y-121142991D01*
X152793448Y-121178729D01*
X152710186Y-121280186D01*
X152608729Y-121363448D01*
X152572991Y-121392778D01*
X152416466Y-121476443D01*
X152246627Y-121527963D01*
X152180442Y-121534482D01*
X152114260Y-121541000D01*
X152025740Y-121541000D01*
X151959558Y-121534482D01*
X151893373Y-121527963D01*
X151723534Y-121476443D01*
X151567009Y-121392778D01*
X151531271Y-121363448D01*
X151429814Y-121280186D01*
X151346552Y-121178729D01*
X151317222Y-121142991D01*
X151233557Y-120986466D01*
X151182037Y-120816627D01*
X151164641Y-120640000D01*
X151182037Y-120463373D01*
X151233557Y-120293534D01*
X151317222Y-120137009D01*
X151346552Y-120101271D01*
X151429814Y-119999814D01*
X151531271Y-119916552D01*
X151567009Y-119887222D01*
X151723534Y-119803557D01*
X151893373Y-119752037D01*
X151959558Y-119745518D01*
X152025740Y-119739000D01*
X152114260Y-119739000D01*
X152180442Y-119745518D01*
X152180442Y-119745518D01*
G37*
G36*
X197900442Y-119745518D02*
G01*
X197966627Y-119752037D01*
X198136466Y-119803557D01*
X198292991Y-119887222D01*
X198328729Y-119916552D01*
X198430186Y-119999814D01*
X198513448Y-120101271D01*
X198542778Y-120137009D01*
X198626443Y-120293534D01*
X198677963Y-120463373D01*
X198695359Y-120640000D01*
X198677963Y-120816627D01*
X198626443Y-120986466D01*
X198542778Y-121142991D01*
X198513448Y-121178729D01*
X198430186Y-121280186D01*
X198328729Y-121363448D01*
X198292991Y-121392778D01*
X198136466Y-121476443D01*
X197966627Y-121527963D01*
X197900442Y-121534482D01*
X197834260Y-121541000D01*
X197745740Y-121541000D01*
X197679558Y-121534482D01*
X197613373Y-121527963D01*
X197443534Y-121476443D01*
X197287009Y-121392778D01*
X197251271Y-121363448D01*
X197149814Y-121280186D01*
X197066552Y-121178729D01*
X197037222Y-121142991D01*
X196953557Y-120986466D01*
X196902037Y-120816627D01*
X196884641Y-120640000D01*
X196902037Y-120463373D01*
X196953557Y-120293534D01*
X197037222Y-120137009D01*
X197066552Y-120101271D01*
X197149814Y-119999814D01*
X197251271Y-119916552D01*
X197287009Y-119887222D01*
X197443534Y-119803557D01*
X197613373Y-119752037D01*
X197679558Y-119745518D01*
X197745740Y-119739000D01*
X197834260Y-119739000D01*
X197900442Y-119745518D01*
X197900442Y-119745518D01*
G37*
G36*
X129320443Y-117205519D02*
G01*
X129386627Y-117212037D01*
X129556466Y-117263557D01*
X129712991Y-117347222D01*
X129748729Y-117376552D01*
X129850186Y-117459814D01*
X129933448Y-117561271D01*
X129962778Y-117597009D01*
X130046443Y-117753534D01*
X130097963Y-117923373D01*
X130115359Y-118100000D01*
X130097963Y-118276627D01*
X130046443Y-118446466D01*
X129962778Y-118602991D01*
X129933448Y-118638729D01*
X129850186Y-118740186D01*
X129748729Y-118823448D01*
X129712991Y-118852778D01*
X129556466Y-118936443D01*
X129386627Y-118987963D01*
X129320442Y-118994482D01*
X129254260Y-119001000D01*
X129165740Y-119001000D01*
X129099558Y-118994482D01*
X129033373Y-118987963D01*
X128863534Y-118936443D01*
X128707009Y-118852778D01*
X128671271Y-118823448D01*
X128569814Y-118740186D01*
X128486552Y-118638729D01*
X128457222Y-118602991D01*
X128373557Y-118446466D01*
X128322037Y-118276627D01*
X128304641Y-118100000D01*
X128322037Y-117923373D01*
X128373557Y-117753534D01*
X128457222Y-117597009D01*
X128486552Y-117561271D01*
X128569814Y-117459814D01*
X128671271Y-117376552D01*
X128707009Y-117347222D01*
X128863534Y-117263557D01*
X129033373Y-117212037D01*
X129099557Y-117205519D01*
X129165740Y-117199000D01*
X129254260Y-117199000D01*
X129320443Y-117205519D01*
X129320443Y-117205519D01*
G37*
G36*
X197900443Y-117205519D02*
G01*
X197966627Y-117212037D01*
X198136466Y-117263557D01*
X198292991Y-117347222D01*
X198328729Y-117376552D01*
X198430186Y-117459814D01*
X198513448Y-117561271D01*
X198542778Y-117597009D01*
X198626443Y-117753534D01*
X198677963Y-117923373D01*
X198695359Y-118100000D01*
X198677963Y-118276627D01*
X198626443Y-118446466D01*
X198542778Y-118602991D01*
X198513448Y-118638729D01*
X198430186Y-118740186D01*
X198328729Y-118823448D01*
X198292991Y-118852778D01*
X198136466Y-118936443D01*
X197966627Y-118987963D01*
X197900442Y-118994482D01*
X197834260Y-119001000D01*
X197745740Y-119001000D01*
X197679558Y-118994482D01*
X197613373Y-118987963D01*
X197443534Y-118936443D01*
X197287009Y-118852778D01*
X197251271Y-118823448D01*
X197149814Y-118740186D01*
X197066552Y-118638729D01*
X197037222Y-118602991D01*
X196953557Y-118446466D01*
X196902037Y-118276627D01*
X196884641Y-118100000D01*
X196902037Y-117923373D01*
X196953557Y-117753534D01*
X197037222Y-117597009D01*
X197066552Y-117561271D01*
X197149814Y-117459814D01*
X197251271Y-117376552D01*
X197287009Y-117347222D01*
X197443534Y-117263557D01*
X197613373Y-117212037D01*
X197679557Y-117205519D01*
X197745740Y-117199000D01*
X197834260Y-117199000D01*
X197900443Y-117205519D01*
X197900443Y-117205519D01*
G37*
G36*
X175040443Y-117205519D02*
G01*
X175106627Y-117212037D01*
X175276466Y-117263557D01*
X175432991Y-117347222D01*
X175468729Y-117376552D01*
X175570186Y-117459814D01*
X175653448Y-117561271D01*
X175682778Y-117597009D01*
X175766443Y-117753534D01*
X175817963Y-117923373D01*
X175835359Y-118100000D01*
X175817963Y-118276627D01*
X175766443Y-118446466D01*
X175682778Y-118602991D01*
X175653448Y-118638729D01*
X175570186Y-118740186D01*
X175468729Y-118823448D01*
X175432991Y-118852778D01*
X175276466Y-118936443D01*
X175106627Y-118987963D01*
X175040442Y-118994482D01*
X174974260Y-119001000D01*
X174885740Y-119001000D01*
X174819558Y-118994482D01*
X174753373Y-118987963D01*
X174583534Y-118936443D01*
X174427009Y-118852778D01*
X174391271Y-118823448D01*
X174289814Y-118740186D01*
X174206552Y-118638729D01*
X174177222Y-118602991D01*
X174093557Y-118446466D01*
X174042037Y-118276627D01*
X174024641Y-118100000D01*
X174042037Y-117923373D01*
X174093557Y-117753534D01*
X174177222Y-117597009D01*
X174206552Y-117561271D01*
X174289814Y-117459814D01*
X174391271Y-117376552D01*
X174427009Y-117347222D01*
X174583534Y-117263557D01*
X174753373Y-117212037D01*
X174819557Y-117205519D01*
X174885740Y-117199000D01*
X174974260Y-117199000D01*
X175040443Y-117205519D01*
X175040443Y-117205519D01*
G37*
G36*
X152180443Y-117205519D02*
G01*
X152246627Y-117212037D01*
X152416466Y-117263557D01*
X152572991Y-117347222D01*
X152608729Y-117376552D01*
X152710186Y-117459814D01*
X152793448Y-117561271D01*
X152822778Y-117597009D01*
X152906443Y-117753534D01*
X152957963Y-117923373D01*
X152975359Y-118100000D01*
X152957963Y-118276627D01*
X152906443Y-118446466D01*
X152822778Y-118602991D01*
X152793448Y-118638729D01*
X152710186Y-118740186D01*
X152608729Y-118823448D01*
X152572991Y-118852778D01*
X152416466Y-118936443D01*
X152246627Y-118987963D01*
X152180442Y-118994482D01*
X152114260Y-119001000D01*
X152025740Y-119001000D01*
X151959558Y-118994482D01*
X151893373Y-118987963D01*
X151723534Y-118936443D01*
X151567009Y-118852778D01*
X151531271Y-118823448D01*
X151429814Y-118740186D01*
X151346552Y-118638729D01*
X151317222Y-118602991D01*
X151233557Y-118446466D01*
X151182037Y-118276627D01*
X151164641Y-118100000D01*
X151182037Y-117923373D01*
X151233557Y-117753534D01*
X151317222Y-117597009D01*
X151346552Y-117561271D01*
X151429814Y-117459814D01*
X151531271Y-117376552D01*
X151567009Y-117347222D01*
X151723534Y-117263557D01*
X151893373Y-117212037D01*
X151959557Y-117205519D01*
X152025740Y-117199000D01*
X152114260Y-117199000D01*
X152180443Y-117205519D01*
X152180443Y-117205519D01*
G37*
G36*
X129320443Y-114665519D02*
G01*
X129386627Y-114672037D01*
X129556466Y-114723557D01*
X129712991Y-114807222D01*
X129748729Y-114836552D01*
X129850186Y-114919814D01*
X129933448Y-115021271D01*
X129962778Y-115057009D01*
X130046443Y-115213534D01*
X130097963Y-115383373D01*
X130115359Y-115560000D01*
X130097963Y-115736627D01*
X130046443Y-115906466D01*
X129962778Y-116062991D01*
X129933448Y-116098729D01*
X129850186Y-116200186D01*
X129748729Y-116283448D01*
X129712991Y-116312778D01*
X129556466Y-116396443D01*
X129386627Y-116447963D01*
X129320443Y-116454481D01*
X129254260Y-116461000D01*
X129165740Y-116461000D01*
X129099557Y-116454481D01*
X129033373Y-116447963D01*
X128863534Y-116396443D01*
X128707009Y-116312778D01*
X128671271Y-116283448D01*
X128569814Y-116200186D01*
X128486552Y-116098729D01*
X128457222Y-116062991D01*
X128373557Y-115906466D01*
X128322037Y-115736627D01*
X128304641Y-115560000D01*
X128322037Y-115383373D01*
X128373557Y-115213534D01*
X128457222Y-115057009D01*
X128486552Y-115021271D01*
X128569814Y-114919814D01*
X128671271Y-114836552D01*
X128707009Y-114807222D01*
X128863534Y-114723557D01*
X129033373Y-114672037D01*
X129099557Y-114665519D01*
X129165740Y-114659000D01*
X129254260Y-114659000D01*
X129320443Y-114665519D01*
X129320443Y-114665519D01*
G37*
G36*
X152180443Y-114665519D02*
G01*
X152246627Y-114672037D01*
X152416466Y-114723557D01*
X152572991Y-114807222D01*
X152608729Y-114836552D01*
X152710186Y-114919814D01*
X152793448Y-115021271D01*
X152822778Y-115057009D01*
X152906443Y-115213534D01*
X152957963Y-115383373D01*
X152975359Y-115560000D01*
X152957963Y-115736627D01*
X152906443Y-115906466D01*
X152822778Y-116062991D01*
X152793448Y-116098729D01*
X152710186Y-116200186D01*
X152608729Y-116283448D01*
X152572991Y-116312778D01*
X152416466Y-116396443D01*
X152246627Y-116447963D01*
X152180443Y-116454481D01*
X152114260Y-116461000D01*
X152025740Y-116461000D01*
X151959557Y-116454481D01*
X151893373Y-116447963D01*
X151723534Y-116396443D01*
X151567009Y-116312778D01*
X151531271Y-116283448D01*
X151429814Y-116200186D01*
X151346552Y-116098729D01*
X151317222Y-116062991D01*
X151233557Y-115906466D01*
X151182037Y-115736627D01*
X151164641Y-115560000D01*
X151182037Y-115383373D01*
X151233557Y-115213534D01*
X151317222Y-115057009D01*
X151346552Y-115021271D01*
X151429814Y-114919814D01*
X151531271Y-114836552D01*
X151567009Y-114807222D01*
X151723534Y-114723557D01*
X151893373Y-114672037D01*
X151959557Y-114665519D01*
X152025740Y-114659000D01*
X152114260Y-114659000D01*
X152180443Y-114665519D01*
X152180443Y-114665519D01*
G37*
G36*
X197900443Y-114665519D02*
G01*
X197966627Y-114672037D01*
X198136466Y-114723557D01*
X198292991Y-114807222D01*
X198328729Y-114836552D01*
X198430186Y-114919814D01*
X198513448Y-115021271D01*
X198542778Y-115057009D01*
X198626443Y-115213534D01*
X198677963Y-115383373D01*
X198695359Y-115560000D01*
X198677963Y-115736627D01*
X198626443Y-115906466D01*
X198542778Y-116062991D01*
X198513448Y-116098729D01*
X198430186Y-116200186D01*
X198328729Y-116283448D01*
X198292991Y-116312778D01*
X198136466Y-116396443D01*
X197966627Y-116447963D01*
X197900443Y-116454481D01*
X197834260Y-116461000D01*
X197745740Y-116461000D01*
X197679557Y-116454481D01*
X197613373Y-116447963D01*
X197443534Y-116396443D01*
X197287009Y-116312778D01*
X197251271Y-116283448D01*
X197149814Y-116200186D01*
X197066552Y-116098729D01*
X197037222Y-116062991D01*
X196953557Y-115906466D01*
X196902037Y-115736627D01*
X196884641Y-115560000D01*
X196902037Y-115383373D01*
X196953557Y-115213534D01*
X197037222Y-115057009D01*
X197066552Y-115021271D01*
X197149814Y-114919814D01*
X197251271Y-114836552D01*
X197287009Y-114807222D01*
X197443534Y-114723557D01*
X197613373Y-114672037D01*
X197679557Y-114665519D01*
X197745740Y-114659000D01*
X197834260Y-114659000D01*
X197900443Y-114665519D01*
X197900443Y-114665519D01*
G37*
G36*
X175040443Y-114665519D02*
G01*
X175106627Y-114672037D01*
X175276466Y-114723557D01*
X175432991Y-114807222D01*
X175468729Y-114836552D01*
X175570186Y-114919814D01*
X175653448Y-115021271D01*
X175682778Y-115057009D01*
X175766443Y-115213534D01*
X175817963Y-115383373D01*
X175835359Y-115560000D01*
X175817963Y-115736627D01*
X175766443Y-115906466D01*
X175682778Y-116062991D01*
X175653448Y-116098729D01*
X175570186Y-116200186D01*
X175468729Y-116283448D01*
X175432991Y-116312778D01*
X175276466Y-116396443D01*
X175106627Y-116447963D01*
X175040443Y-116454481D01*
X174974260Y-116461000D01*
X174885740Y-116461000D01*
X174819557Y-116454481D01*
X174753373Y-116447963D01*
X174583534Y-116396443D01*
X174427009Y-116312778D01*
X174391271Y-116283448D01*
X174289814Y-116200186D01*
X174206552Y-116098729D01*
X174177222Y-116062991D01*
X174093557Y-115906466D01*
X174042037Y-115736627D01*
X174024641Y-115560000D01*
X174042037Y-115383373D01*
X174093557Y-115213534D01*
X174177222Y-115057009D01*
X174206552Y-115021271D01*
X174289814Y-114919814D01*
X174391271Y-114836552D01*
X174427009Y-114807222D01*
X174583534Y-114723557D01*
X174753373Y-114672037D01*
X174819557Y-114665519D01*
X174885740Y-114659000D01*
X174974260Y-114659000D01*
X175040443Y-114665519D01*
X175040443Y-114665519D01*
G37*
G36*
X175040442Y-112125518D02*
G01*
X175106627Y-112132037D01*
X175276466Y-112183557D01*
X175432991Y-112267222D01*
X175468729Y-112296552D01*
X175570186Y-112379814D01*
X175653448Y-112481271D01*
X175682778Y-112517009D01*
X175766443Y-112673534D01*
X175817963Y-112843373D01*
X175835359Y-113020000D01*
X175817963Y-113196627D01*
X175766443Y-113366466D01*
X175682778Y-113522991D01*
X175653448Y-113558729D01*
X175570186Y-113660186D01*
X175468729Y-113743448D01*
X175432991Y-113772778D01*
X175276466Y-113856443D01*
X175106627Y-113907963D01*
X175040443Y-113914481D01*
X174974260Y-113921000D01*
X174885740Y-113921000D01*
X174819557Y-113914481D01*
X174753373Y-113907963D01*
X174583534Y-113856443D01*
X174427009Y-113772778D01*
X174391271Y-113743448D01*
X174289814Y-113660186D01*
X174206552Y-113558729D01*
X174177222Y-113522991D01*
X174093557Y-113366466D01*
X174042037Y-113196627D01*
X174024641Y-113020000D01*
X174042037Y-112843373D01*
X174093557Y-112673534D01*
X174177222Y-112517009D01*
X174206552Y-112481271D01*
X174289814Y-112379814D01*
X174391271Y-112296552D01*
X174427009Y-112267222D01*
X174583534Y-112183557D01*
X174753373Y-112132037D01*
X174819558Y-112125518D01*
X174885740Y-112119000D01*
X174974260Y-112119000D01*
X175040442Y-112125518D01*
X175040442Y-112125518D01*
G37*
G36*
X129320442Y-112125518D02*
G01*
X129386627Y-112132037D01*
X129556466Y-112183557D01*
X129712991Y-112267222D01*
X129748729Y-112296552D01*
X129850186Y-112379814D01*
X129933448Y-112481271D01*
X129962778Y-112517009D01*
X130046443Y-112673534D01*
X130097963Y-112843373D01*
X130115359Y-113020000D01*
X130097963Y-113196627D01*
X130046443Y-113366466D01*
X129962778Y-113522991D01*
X129933448Y-113558729D01*
X129850186Y-113660186D01*
X129748729Y-113743448D01*
X129712991Y-113772778D01*
X129556466Y-113856443D01*
X129386627Y-113907963D01*
X129320443Y-113914481D01*
X129254260Y-113921000D01*
X129165740Y-113921000D01*
X129099557Y-113914481D01*
X129033373Y-113907963D01*
X128863534Y-113856443D01*
X128707009Y-113772778D01*
X128671271Y-113743448D01*
X128569814Y-113660186D01*
X128486552Y-113558729D01*
X128457222Y-113522991D01*
X128373557Y-113366466D01*
X128322037Y-113196627D01*
X128304641Y-113020000D01*
X128322037Y-112843373D01*
X128373557Y-112673534D01*
X128457222Y-112517009D01*
X128486552Y-112481271D01*
X128569814Y-112379814D01*
X128671271Y-112296552D01*
X128707009Y-112267222D01*
X128863534Y-112183557D01*
X129033373Y-112132037D01*
X129099558Y-112125518D01*
X129165740Y-112119000D01*
X129254260Y-112119000D01*
X129320442Y-112125518D01*
X129320442Y-112125518D01*
G37*
G36*
X152180442Y-112125518D02*
G01*
X152246627Y-112132037D01*
X152416466Y-112183557D01*
X152572991Y-112267222D01*
X152608729Y-112296552D01*
X152710186Y-112379814D01*
X152793448Y-112481271D01*
X152822778Y-112517009D01*
X152906443Y-112673534D01*
X152957963Y-112843373D01*
X152975359Y-113020000D01*
X152957963Y-113196627D01*
X152906443Y-113366466D01*
X152822778Y-113522991D01*
X152793448Y-113558729D01*
X152710186Y-113660186D01*
X152608729Y-113743448D01*
X152572991Y-113772778D01*
X152416466Y-113856443D01*
X152246627Y-113907963D01*
X152180443Y-113914481D01*
X152114260Y-113921000D01*
X152025740Y-113921000D01*
X151959557Y-113914481D01*
X151893373Y-113907963D01*
X151723534Y-113856443D01*
X151567009Y-113772778D01*
X151531271Y-113743448D01*
X151429814Y-113660186D01*
X151346552Y-113558729D01*
X151317222Y-113522991D01*
X151233557Y-113366466D01*
X151182037Y-113196627D01*
X151164641Y-113020000D01*
X151182037Y-112843373D01*
X151233557Y-112673534D01*
X151317222Y-112517009D01*
X151346552Y-112481271D01*
X151429814Y-112379814D01*
X151531271Y-112296552D01*
X151567009Y-112267222D01*
X151723534Y-112183557D01*
X151893373Y-112132037D01*
X151959558Y-112125518D01*
X152025740Y-112119000D01*
X152114260Y-112119000D01*
X152180442Y-112125518D01*
X152180442Y-112125518D01*
G37*
G36*
X197900442Y-112125518D02*
G01*
X197966627Y-112132037D01*
X198136466Y-112183557D01*
X198292991Y-112267222D01*
X198328729Y-112296552D01*
X198430186Y-112379814D01*
X198513448Y-112481271D01*
X198542778Y-112517009D01*
X198626443Y-112673534D01*
X198677963Y-112843373D01*
X198695359Y-113020000D01*
X198677963Y-113196627D01*
X198626443Y-113366466D01*
X198542778Y-113522991D01*
X198513448Y-113558729D01*
X198430186Y-113660186D01*
X198328729Y-113743448D01*
X198292991Y-113772778D01*
X198136466Y-113856443D01*
X197966627Y-113907963D01*
X197900443Y-113914481D01*
X197834260Y-113921000D01*
X197745740Y-113921000D01*
X197679557Y-113914481D01*
X197613373Y-113907963D01*
X197443534Y-113856443D01*
X197287009Y-113772778D01*
X197251271Y-113743448D01*
X197149814Y-113660186D01*
X197066552Y-113558729D01*
X197037222Y-113522991D01*
X196953557Y-113366466D01*
X196902037Y-113196627D01*
X196884641Y-113020000D01*
X196902037Y-112843373D01*
X196953557Y-112673534D01*
X197037222Y-112517009D01*
X197066552Y-112481271D01*
X197149814Y-112379814D01*
X197251271Y-112296552D01*
X197287009Y-112267222D01*
X197443534Y-112183557D01*
X197613373Y-112132037D01*
X197679558Y-112125518D01*
X197745740Y-112119000D01*
X197834260Y-112119000D01*
X197900442Y-112125518D01*
X197900442Y-112125518D01*
G37*
G36*
X210600442Y-112125518D02*
G01*
X210666627Y-112132037D01*
X210836466Y-112183557D01*
X210992991Y-112267222D01*
X211028729Y-112296552D01*
X211130186Y-112379814D01*
X211213448Y-112481271D01*
X211242778Y-112517009D01*
X211326443Y-112673534D01*
X211377963Y-112843373D01*
X211395359Y-113020000D01*
X211377963Y-113196627D01*
X211326443Y-113366466D01*
X211242778Y-113522991D01*
X211213448Y-113558729D01*
X211130186Y-113660186D01*
X211028729Y-113743448D01*
X210992991Y-113772778D01*
X210836466Y-113856443D01*
X210666627Y-113907963D01*
X210600443Y-113914481D01*
X210534260Y-113921000D01*
X210445740Y-113921000D01*
X210379557Y-113914481D01*
X210313373Y-113907963D01*
X210143534Y-113856443D01*
X209987009Y-113772778D01*
X209951271Y-113743448D01*
X209849814Y-113660186D01*
X209766552Y-113558729D01*
X209737222Y-113522991D01*
X209653557Y-113366466D01*
X209602037Y-113196627D01*
X209584641Y-113020000D01*
X209602037Y-112843373D01*
X209653557Y-112673534D01*
X209737222Y-112517009D01*
X209766552Y-112481271D01*
X209849814Y-112379814D01*
X209951271Y-112296552D01*
X209987009Y-112267222D01*
X210143534Y-112183557D01*
X210313373Y-112132037D01*
X210379558Y-112125518D01*
X210445740Y-112119000D01*
X210534260Y-112119000D01*
X210600442Y-112125518D01*
X210600442Y-112125518D01*
G37*
G36*
X103920442Y-112125518D02*
G01*
X103986627Y-112132037D01*
X104156466Y-112183557D01*
X104312991Y-112267222D01*
X104348729Y-112296552D01*
X104450186Y-112379814D01*
X104533448Y-112481271D01*
X104562778Y-112517009D01*
X104646443Y-112673534D01*
X104697963Y-112843373D01*
X104715359Y-113020000D01*
X104697963Y-113196627D01*
X104646443Y-113366466D01*
X104562778Y-113522991D01*
X104533448Y-113558729D01*
X104450186Y-113660186D01*
X104348729Y-113743448D01*
X104312991Y-113772778D01*
X104156466Y-113856443D01*
X103986627Y-113907963D01*
X103920443Y-113914481D01*
X103854260Y-113921000D01*
X103765740Y-113921000D01*
X103699557Y-113914481D01*
X103633373Y-113907963D01*
X103463534Y-113856443D01*
X103307009Y-113772778D01*
X103271271Y-113743448D01*
X103169814Y-113660186D01*
X103086552Y-113558729D01*
X103057222Y-113522991D01*
X102973557Y-113366466D01*
X102922037Y-113196627D01*
X102904641Y-113020000D01*
X102922037Y-112843373D01*
X102973557Y-112673534D01*
X103057222Y-112517009D01*
X103086552Y-112481271D01*
X103169814Y-112379814D01*
X103271271Y-112296552D01*
X103307009Y-112267222D01*
X103463534Y-112183557D01*
X103633373Y-112132037D01*
X103699558Y-112125518D01*
X103765740Y-112119000D01*
X103854260Y-112119000D01*
X103920442Y-112125518D01*
X103920442Y-112125518D01*
G37*
G36*
X129320443Y-109585519D02*
G01*
X129386627Y-109592037D01*
X129556466Y-109643557D01*
X129712991Y-109727222D01*
X129748729Y-109756552D01*
X129850186Y-109839814D01*
X129933448Y-109941271D01*
X129962778Y-109977009D01*
X130046443Y-110133534D01*
X130097963Y-110303373D01*
X130115359Y-110480000D01*
X130097963Y-110656627D01*
X130046443Y-110826466D01*
X129962778Y-110982991D01*
X129933448Y-111018729D01*
X129850186Y-111120186D01*
X129748729Y-111203448D01*
X129712991Y-111232778D01*
X129556466Y-111316443D01*
X129386627Y-111367963D01*
X129320443Y-111374481D01*
X129254260Y-111381000D01*
X129165740Y-111381000D01*
X129099557Y-111374481D01*
X129033373Y-111367963D01*
X128863534Y-111316443D01*
X128707009Y-111232778D01*
X128671271Y-111203448D01*
X128569814Y-111120186D01*
X128486552Y-111018729D01*
X128457222Y-110982991D01*
X128373557Y-110826466D01*
X128322037Y-110656627D01*
X128304641Y-110480000D01*
X128322037Y-110303373D01*
X128373557Y-110133534D01*
X128457222Y-109977009D01*
X128486552Y-109941271D01*
X128569814Y-109839814D01*
X128671271Y-109756552D01*
X128707009Y-109727222D01*
X128863534Y-109643557D01*
X129033373Y-109592037D01*
X129099557Y-109585519D01*
X129165740Y-109579000D01*
X129254260Y-109579000D01*
X129320443Y-109585519D01*
X129320443Y-109585519D01*
G37*
G36*
X210600443Y-109585519D02*
G01*
X210666627Y-109592037D01*
X210836466Y-109643557D01*
X210992991Y-109727222D01*
X211028729Y-109756552D01*
X211130186Y-109839814D01*
X211213448Y-109941271D01*
X211242778Y-109977009D01*
X211326443Y-110133534D01*
X211377963Y-110303373D01*
X211395359Y-110480000D01*
X211377963Y-110656627D01*
X211326443Y-110826466D01*
X211242778Y-110982991D01*
X211213448Y-111018729D01*
X211130186Y-111120186D01*
X211028729Y-111203448D01*
X210992991Y-111232778D01*
X210836466Y-111316443D01*
X210666627Y-111367963D01*
X210600443Y-111374481D01*
X210534260Y-111381000D01*
X210445740Y-111381000D01*
X210379557Y-111374481D01*
X210313373Y-111367963D01*
X210143534Y-111316443D01*
X209987009Y-111232778D01*
X209951271Y-111203448D01*
X209849814Y-111120186D01*
X209766552Y-111018729D01*
X209737222Y-110982991D01*
X209653557Y-110826466D01*
X209602037Y-110656627D01*
X209584641Y-110480000D01*
X209602037Y-110303373D01*
X209653557Y-110133534D01*
X209737222Y-109977009D01*
X209766552Y-109941271D01*
X209849814Y-109839814D01*
X209951271Y-109756552D01*
X209987009Y-109727222D01*
X210143534Y-109643557D01*
X210313373Y-109592037D01*
X210379557Y-109585519D01*
X210445740Y-109579000D01*
X210534260Y-109579000D01*
X210600443Y-109585519D01*
X210600443Y-109585519D01*
G37*
G36*
X103920443Y-109585519D02*
G01*
X103986627Y-109592037D01*
X104156466Y-109643557D01*
X104312991Y-109727222D01*
X104348729Y-109756552D01*
X104450186Y-109839814D01*
X104533448Y-109941271D01*
X104562778Y-109977009D01*
X104646443Y-110133534D01*
X104697963Y-110303373D01*
X104715359Y-110480000D01*
X104697963Y-110656627D01*
X104646443Y-110826466D01*
X104562778Y-110982991D01*
X104533448Y-111018729D01*
X104450186Y-111120186D01*
X104348729Y-111203448D01*
X104312991Y-111232778D01*
X104156466Y-111316443D01*
X103986627Y-111367963D01*
X103920443Y-111374481D01*
X103854260Y-111381000D01*
X103765740Y-111381000D01*
X103699557Y-111374481D01*
X103633373Y-111367963D01*
X103463534Y-111316443D01*
X103307009Y-111232778D01*
X103271271Y-111203448D01*
X103169814Y-111120186D01*
X103086552Y-111018729D01*
X103057222Y-110982991D01*
X102973557Y-110826466D01*
X102922037Y-110656627D01*
X102904641Y-110480000D01*
X102922037Y-110303373D01*
X102973557Y-110133534D01*
X103057222Y-109977009D01*
X103086552Y-109941271D01*
X103169814Y-109839814D01*
X103271271Y-109756552D01*
X103307009Y-109727222D01*
X103463534Y-109643557D01*
X103633373Y-109592037D01*
X103699557Y-109585519D01*
X103765740Y-109579000D01*
X103854260Y-109579000D01*
X103920443Y-109585519D01*
X103920443Y-109585519D01*
G37*
G36*
X197900443Y-109585519D02*
G01*
X197966627Y-109592037D01*
X198136466Y-109643557D01*
X198292991Y-109727222D01*
X198328729Y-109756552D01*
X198430186Y-109839814D01*
X198513448Y-109941271D01*
X198542778Y-109977009D01*
X198626443Y-110133534D01*
X198677963Y-110303373D01*
X198695359Y-110480000D01*
X198677963Y-110656627D01*
X198626443Y-110826466D01*
X198542778Y-110982991D01*
X198513448Y-111018729D01*
X198430186Y-111120186D01*
X198328729Y-111203448D01*
X198292991Y-111232778D01*
X198136466Y-111316443D01*
X197966627Y-111367963D01*
X197900443Y-111374481D01*
X197834260Y-111381000D01*
X197745740Y-111381000D01*
X197679557Y-111374481D01*
X197613373Y-111367963D01*
X197443534Y-111316443D01*
X197287009Y-111232778D01*
X197251271Y-111203448D01*
X197149814Y-111120186D01*
X197066552Y-111018729D01*
X197037222Y-110982991D01*
X196953557Y-110826466D01*
X196902037Y-110656627D01*
X196884641Y-110480000D01*
X196902037Y-110303373D01*
X196953557Y-110133534D01*
X197037222Y-109977009D01*
X197066552Y-109941271D01*
X197149814Y-109839814D01*
X197251271Y-109756552D01*
X197287009Y-109727222D01*
X197443534Y-109643557D01*
X197613373Y-109592037D01*
X197679557Y-109585519D01*
X197745740Y-109579000D01*
X197834260Y-109579000D01*
X197900443Y-109585519D01*
X197900443Y-109585519D01*
G37*
G36*
X175040443Y-109585519D02*
G01*
X175106627Y-109592037D01*
X175276466Y-109643557D01*
X175432991Y-109727222D01*
X175468729Y-109756552D01*
X175570186Y-109839814D01*
X175653448Y-109941271D01*
X175682778Y-109977009D01*
X175766443Y-110133534D01*
X175817963Y-110303373D01*
X175835359Y-110480000D01*
X175817963Y-110656627D01*
X175766443Y-110826466D01*
X175682778Y-110982991D01*
X175653448Y-111018729D01*
X175570186Y-111120186D01*
X175468729Y-111203448D01*
X175432991Y-111232778D01*
X175276466Y-111316443D01*
X175106627Y-111367963D01*
X175040443Y-111374481D01*
X174974260Y-111381000D01*
X174885740Y-111381000D01*
X174819557Y-111374481D01*
X174753373Y-111367963D01*
X174583534Y-111316443D01*
X174427009Y-111232778D01*
X174391271Y-111203448D01*
X174289814Y-111120186D01*
X174206552Y-111018729D01*
X174177222Y-110982991D01*
X174093557Y-110826466D01*
X174042037Y-110656627D01*
X174024641Y-110480000D01*
X174042037Y-110303373D01*
X174093557Y-110133534D01*
X174177222Y-109977009D01*
X174206552Y-109941271D01*
X174289814Y-109839814D01*
X174391271Y-109756552D01*
X174427009Y-109727222D01*
X174583534Y-109643557D01*
X174753373Y-109592037D01*
X174819557Y-109585519D01*
X174885740Y-109579000D01*
X174974260Y-109579000D01*
X175040443Y-109585519D01*
X175040443Y-109585519D01*
G37*
G36*
X152180443Y-109585519D02*
G01*
X152246627Y-109592037D01*
X152416466Y-109643557D01*
X152572991Y-109727222D01*
X152608729Y-109756552D01*
X152710186Y-109839814D01*
X152793448Y-109941271D01*
X152822778Y-109977009D01*
X152906443Y-110133534D01*
X152957963Y-110303373D01*
X152975359Y-110480000D01*
X152957963Y-110656627D01*
X152906443Y-110826466D01*
X152822778Y-110982991D01*
X152793448Y-111018729D01*
X152710186Y-111120186D01*
X152608729Y-111203448D01*
X152572991Y-111232778D01*
X152416466Y-111316443D01*
X152246627Y-111367963D01*
X152180443Y-111374481D01*
X152114260Y-111381000D01*
X152025740Y-111381000D01*
X151959557Y-111374481D01*
X151893373Y-111367963D01*
X151723534Y-111316443D01*
X151567009Y-111232778D01*
X151531271Y-111203448D01*
X151429814Y-111120186D01*
X151346552Y-111018729D01*
X151317222Y-110982991D01*
X151233557Y-110826466D01*
X151182037Y-110656627D01*
X151164641Y-110480000D01*
X151182037Y-110303373D01*
X151233557Y-110133534D01*
X151317222Y-109977009D01*
X151346552Y-109941271D01*
X151429814Y-109839814D01*
X151531271Y-109756552D01*
X151567009Y-109727222D01*
X151723534Y-109643557D01*
X151893373Y-109592037D01*
X151959557Y-109585519D01*
X152025740Y-109579000D01*
X152114260Y-109579000D01*
X152180443Y-109585519D01*
X152180443Y-109585519D01*
G37*
G36*
X210600442Y-107045518D02*
G01*
X210666627Y-107052037D01*
X210836466Y-107103557D01*
X210992991Y-107187222D01*
X211028729Y-107216552D01*
X211130186Y-107299814D01*
X211213448Y-107401271D01*
X211242778Y-107437009D01*
X211326443Y-107593534D01*
X211377963Y-107763373D01*
X211395359Y-107940000D01*
X211377963Y-108116627D01*
X211326443Y-108286466D01*
X211242778Y-108442991D01*
X211213448Y-108478729D01*
X211130186Y-108580186D01*
X211028729Y-108663448D01*
X210992991Y-108692778D01*
X210836466Y-108776443D01*
X210666627Y-108827963D01*
X210600442Y-108834482D01*
X210534260Y-108841000D01*
X210445740Y-108841000D01*
X210379558Y-108834482D01*
X210313373Y-108827963D01*
X210143534Y-108776443D01*
X209987009Y-108692778D01*
X209951271Y-108663448D01*
X209849814Y-108580186D01*
X209766552Y-108478729D01*
X209737222Y-108442991D01*
X209653557Y-108286466D01*
X209602037Y-108116627D01*
X209584641Y-107940000D01*
X209602037Y-107763373D01*
X209653557Y-107593534D01*
X209737222Y-107437009D01*
X209766552Y-107401271D01*
X209849814Y-107299814D01*
X209951271Y-107216552D01*
X209987009Y-107187222D01*
X210143534Y-107103557D01*
X210313373Y-107052037D01*
X210379558Y-107045518D01*
X210445740Y-107039000D01*
X210534260Y-107039000D01*
X210600442Y-107045518D01*
X210600442Y-107045518D01*
G37*
G36*
X103920442Y-107045518D02*
G01*
X103986627Y-107052037D01*
X104156466Y-107103557D01*
X104312991Y-107187222D01*
X104348729Y-107216552D01*
X104450186Y-107299814D01*
X104533448Y-107401271D01*
X104562778Y-107437009D01*
X104646443Y-107593534D01*
X104697963Y-107763373D01*
X104715359Y-107940000D01*
X104697963Y-108116627D01*
X104646443Y-108286466D01*
X104562778Y-108442991D01*
X104533448Y-108478729D01*
X104450186Y-108580186D01*
X104348729Y-108663448D01*
X104312991Y-108692778D01*
X104156466Y-108776443D01*
X103986627Y-108827963D01*
X103920442Y-108834482D01*
X103854260Y-108841000D01*
X103765740Y-108841000D01*
X103699558Y-108834482D01*
X103633373Y-108827963D01*
X103463534Y-108776443D01*
X103307009Y-108692778D01*
X103271271Y-108663448D01*
X103169814Y-108580186D01*
X103086552Y-108478729D01*
X103057222Y-108442991D01*
X102973557Y-108286466D01*
X102922037Y-108116627D01*
X102904641Y-107940000D01*
X102922037Y-107763373D01*
X102973557Y-107593534D01*
X103057222Y-107437009D01*
X103086552Y-107401271D01*
X103169814Y-107299814D01*
X103271271Y-107216552D01*
X103307009Y-107187222D01*
X103463534Y-107103557D01*
X103633373Y-107052037D01*
X103699558Y-107045518D01*
X103765740Y-107039000D01*
X103854260Y-107039000D01*
X103920442Y-107045518D01*
X103920442Y-107045518D01*
G37*
G36*
X103920443Y-104505519D02*
G01*
X103986627Y-104512037D01*
X104156466Y-104563557D01*
X104312991Y-104647222D01*
X104348729Y-104676552D01*
X104450186Y-104759814D01*
X104533448Y-104861271D01*
X104562778Y-104897009D01*
X104646443Y-105053534D01*
X104697963Y-105223373D01*
X104715359Y-105400000D01*
X104697963Y-105576627D01*
X104646443Y-105746466D01*
X104562778Y-105902991D01*
X104533448Y-105938729D01*
X104450186Y-106040186D01*
X104348729Y-106123448D01*
X104312991Y-106152778D01*
X104156466Y-106236443D01*
X103986627Y-106287963D01*
X103920442Y-106294482D01*
X103854260Y-106301000D01*
X103765740Y-106301000D01*
X103699558Y-106294482D01*
X103633373Y-106287963D01*
X103463534Y-106236443D01*
X103307009Y-106152778D01*
X103271271Y-106123448D01*
X103169814Y-106040186D01*
X103086552Y-105938729D01*
X103057222Y-105902991D01*
X102973557Y-105746466D01*
X102922037Y-105576627D01*
X102904641Y-105400000D01*
X102922037Y-105223373D01*
X102973557Y-105053534D01*
X103057222Y-104897009D01*
X103086552Y-104861271D01*
X103169814Y-104759814D01*
X103271271Y-104676552D01*
X103307009Y-104647222D01*
X103463534Y-104563557D01*
X103633373Y-104512037D01*
X103699557Y-104505519D01*
X103765740Y-104499000D01*
X103854260Y-104499000D01*
X103920443Y-104505519D01*
X103920443Y-104505519D01*
G37*
G36*
X210600443Y-104505519D02*
G01*
X210666627Y-104512037D01*
X210836466Y-104563557D01*
X210992991Y-104647222D01*
X211028729Y-104676552D01*
X211130186Y-104759814D01*
X211213448Y-104861271D01*
X211242778Y-104897009D01*
X211326443Y-105053534D01*
X211377963Y-105223373D01*
X211395359Y-105400000D01*
X211377963Y-105576627D01*
X211326443Y-105746466D01*
X211242778Y-105902991D01*
X211213448Y-105938729D01*
X211130186Y-106040186D01*
X211028729Y-106123448D01*
X210992991Y-106152778D01*
X210836466Y-106236443D01*
X210666627Y-106287963D01*
X210600442Y-106294482D01*
X210534260Y-106301000D01*
X210445740Y-106301000D01*
X210379558Y-106294482D01*
X210313373Y-106287963D01*
X210143534Y-106236443D01*
X209987009Y-106152778D01*
X209951271Y-106123448D01*
X209849814Y-106040186D01*
X209766552Y-105938729D01*
X209737222Y-105902991D01*
X209653557Y-105746466D01*
X209602037Y-105576627D01*
X209584641Y-105400000D01*
X209602037Y-105223373D01*
X209653557Y-105053534D01*
X209737222Y-104897009D01*
X209766552Y-104861271D01*
X209849814Y-104759814D01*
X209951271Y-104676552D01*
X209987009Y-104647222D01*
X210143534Y-104563557D01*
X210313373Y-104512037D01*
X210379557Y-104505519D01*
X210445740Y-104499000D01*
X210534260Y-104499000D01*
X210600443Y-104505519D01*
X210600443Y-104505519D01*
G37*
G36*
X210600442Y-101965518D02*
G01*
X210666627Y-101972037D01*
X210836466Y-102023557D01*
X210992991Y-102107222D01*
X211028729Y-102136552D01*
X211130186Y-102219814D01*
X211213448Y-102321271D01*
X211242778Y-102357009D01*
X211326443Y-102513534D01*
X211377963Y-102683373D01*
X211395359Y-102860000D01*
X211377963Y-103036627D01*
X211326443Y-103206466D01*
X211242778Y-103362991D01*
X211213448Y-103398729D01*
X211130186Y-103500186D01*
X211028729Y-103583448D01*
X210992991Y-103612778D01*
X210836466Y-103696443D01*
X210666627Y-103747963D01*
X210600442Y-103754482D01*
X210534260Y-103761000D01*
X210445740Y-103761000D01*
X210379558Y-103754482D01*
X210313373Y-103747963D01*
X210143534Y-103696443D01*
X209987009Y-103612778D01*
X209951271Y-103583448D01*
X209849814Y-103500186D01*
X209766552Y-103398729D01*
X209737222Y-103362991D01*
X209653557Y-103206466D01*
X209602037Y-103036627D01*
X209584641Y-102860000D01*
X209602037Y-102683373D01*
X209653557Y-102513534D01*
X209737222Y-102357009D01*
X209766552Y-102321271D01*
X209849814Y-102219814D01*
X209951271Y-102136552D01*
X209987009Y-102107222D01*
X210143534Y-102023557D01*
X210313373Y-101972037D01*
X210379557Y-101965519D01*
X210445740Y-101959000D01*
X210534260Y-101959000D01*
X210600442Y-101965518D01*
X210600442Y-101965518D01*
G37*
G36*
X103920442Y-101965518D02*
G01*
X103986627Y-101972037D01*
X104156466Y-102023557D01*
X104312991Y-102107222D01*
X104348729Y-102136552D01*
X104450186Y-102219814D01*
X104533448Y-102321271D01*
X104562778Y-102357009D01*
X104646443Y-102513534D01*
X104697963Y-102683373D01*
X104715359Y-102860000D01*
X104697963Y-103036627D01*
X104646443Y-103206466D01*
X104562778Y-103362991D01*
X104533448Y-103398729D01*
X104450186Y-103500186D01*
X104348729Y-103583448D01*
X104312991Y-103612778D01*
X104156466Y-103696443D01*
X103986627Y-103747963D01*
X103920442Y-103754482D01*
X103854260Y-103761000D01*
X103765740Y-103761000D01*
X103699558Y-103754482D01*
X103633373Y-103747963D01*
X103463534Y-103696443D01*
X103307009Y-103612778D01*
X103271271Y-103583448D01*
X103169814Y-103500186D01*
X103086552Y-103398729D01*
X103057222Y-103362991D01*
X102973557Y-103206466D01*
X102922037Y-103036627D01*
X102904641Y-102860000D01*
X102922037Y-102683373D01*
X102973557Y-102513534D01*
X103057222Y-102357009D01*
X103086552Y-102321271D01*
X103169814Y-102219814D01*
X103271271Y-102136552D01*
X103307009Y-102107222D01*
X103463534Y-102023557D01*
X103633373Y-101972037D01*
X103699557Y-101965519D01*
X103765740Y-101959000D01*
X103854260Y-101959000D01*
X103920442Y-101965518D01*
X103920442Y-101965518D01*
G37*
G36*
X175831000Y-102491000D02*
G01*
X174029000Y-102491000D01*
X174029000Y-100689000D01*
X175831000Y-100689000D01*
X175831000Y-102491000D01*
X175831000Y-102491000D01*
G37*
G36*
X152971000Y-102491000D02*
G01*
X151169000Y-102491000D01*
X151169000Y-100689000D01*
X152971000Y-100689000D01*
X152971000Y-102491000D01*
X152971000Y-102491000D01*
G37*
G36*
X130111000Y-102491000D02*
G01*
X128309000Y-102491000D01*
X128309000Y-100689000D01*
X130111000Y-100689000D01*
X130111000Y-102491000D01*
X130111000Y-102491000D01*
G37*
G36*
X198691000Y-102491000D02*
G01*
X196889000Y-102491000D01*
X196889000Y-100689000D01*
X198691000Y-100689000D01*
X198691000Y-102491000D01*
X198691000Y-102491000D01*
G37*
G36*
X104711000Y-101221000D02*
G01*
X102909000Y-101221000D01*
X102909000Y-99419000D01*
X104711000Y-99419000D01*
X104711000Y-101221000D01*
X104711000Y-101221000D01*
G37*
G36*
X211391000Y-101221000D02*
G01*
X209589000Y-101221000D01*
X209589000Y-99419000D01*
X211391000Y-99419000D01*
X211391000Y-101221000D01*
X211391000Y-101221000D01*
G37*
G36*
X152180442Y-98155518D02*
G01*
X152246627Y-98162037D01*
X152416466Y-98213557D01*
X152572991Y-98297222D01*
X152608729Y-98326552D01*
X152710186Y-98409814D01*
X152793448Y-98511271D01*
X152822778Y-98547009D01*
X152906443Y-98703534D01*
X152957963Y-98873373D01*
X152975359Y-99050000D01*
X152957963Y-99226627D01*
X152906443Y-99396466D01*
X152822778Y-99552991D01*
X152793448Y-99588729D01*
X152710186Y-99690186D01*
X152608729Y-99773448D01*
X152572991Y-99802778D01*
X152416466Y-99886443D01*
X152246627Y-99937963D01*
X152180443Y-99944481D01*
X152114260Y-99951000D01*
X152025740Y-99951000D01*
X151959557Y-99944481D01*
X151893373Y-99937963D01*
X151723534Y-99886443D01*
X151567009Y-99802778D01*
X151531271Y-99773448D01*
X151429814Y-99690186D01*
X151346552Y-99588729D01*
X151317222Y-99552991D01*
X151233557Y-99396466D01*
X151182037Y-99226627D01*
X151164641Y-99050000D01*
X151182037Y-98873373D01*
X151233557Y-98703534D01*
X151317222Y-98547009D01*
X151346552Y-98511271D01*
X151429814Y-98409814D01*
X151531271Y-98326552D01*
X151567009Y-98297222D01*
X151723534Y-98213557D01*
X151893373Y-98162037D01*
X151959557Y-98155519D01*
X152025740Y-98149000D01*
X152114260Y-98149000D01*
X152180442Y-98155518D01*
X152180442Y-98155518D01*
G37*
G36*
X129320442Y-98155518D02*
G01*
X129386627Y-98162037D01*
X129556466Y-98213557D01*
X129712991Y-98297222D01*
X129748729Y-98326552D01*
X129850186Y-98409814D01*
X129933448Y-98511271D01*
X129962778Y-98547009D01*
X130046443Y-98703534D01*
X130097963Y-98873373D01*
X130115359Y-99050000D01*
X130097963Y-99226627D01*
X130046443Y-99396466D01*
X129962778Y-99552991D01*
X129933448Y-99588729D01*
X129850186Y-99690186D01*
X129748729Y-99773448D01*
X129712991Y-99802778D01*
X129556466Y-99886443D01*
X129386627Y-99937963D01*
X129320443Y-99944481D01*
X129254260Y-99951000D01*
X129165740Y-99951000D01*
X129099557Y-99944481D01*
X129033373Y-99937963D01*
X128863534Y-99886443D01*
X128707009Y-99802778D01*
X128671271Y-99773448D01*
X128569814Y-99690186D01*
X128486552Y-99588729D01*
X128457222Y-99552991D01*
X128373557Y-99396466D01*
X128322037Y-99226627D01*
X128304641Y-99050000D01*
X128322037Y-98873373D01*
X128373557Y-98703534D01*
X128457222Y-98547009D01*
X128486552Y-98511271D01*
X128569814Y-98409814D01*
X128671271Y-98326552D01*
X128707009Y-98297222D01*
X128863534Y-98213557D01*
X129033373Y-98162037D01*
X129099557Y-98155519D01*
X129165740Y-98149000D01*
X129254260Y-98149000D01*
X129320442Y-98155518D01*
X129320442Y-98155518D01*
G37*
G36*
X175040442Y-98155518D02*
G01*
X175106627Y-98162037D01*
X175276466Y-98213557D01*
X175432991Y-98297222D01*
X175468729Y-98326552D01*
X175570186Y-98409814D01*
X175653448Y-98511271D01*
X175682778Y-98547009D01*
X175766443Y-98703534D01*
X175817963Y-98873373D01*
X175835359Y-99050000D01*
X175817963Y-99226627D01*
X175766443Y-99396466D01*
X175682778Y-99552991D01*
X175653448Y-99588729D01*
X175570186Y-99690186D01*
X175468729Y-99773448D01*
X175432991Y-99802778D01*
X175276466Y-99886443D01*
X175106627Y-99937963D01*
X175040443Y-99944481D01*
X174974260Y-99951000D01*
X174885740Y-99951000D01*
X174819557Y-99944481D01*
X174753373Y-99937963D01*
X174583534Y-99886443D01*
X174427009Y-99802778D01*
X174391271Y-99773448D01*
X174289814Y-99690186D01*
X174206552Y-99588729D01*
X174177222Y-99552991D01*
X174093557Y-99396466D01*
X174042037Y-99226627D01*
X174024641Y-99050000D01*
X174042037Y-98873373D01*
X174093557Y-98703534D01*
X174177222Y-98547009D01*
X174206552Y-98511271D01*
X174289814Y-98409814D01*
X174391271Y-98326552D01*
X174427009Y-98297222D01*
X174583534Y-98213557D01*
X174753373Y-98162037D01*
X174819557Y-98155519D01*
X174885740Y-98149000D01*
X174974260Y-98149000D01*
X175040442Y-98155518D01*
X175040442Y-98155518D01*
G37*
G36*
X197900442Y-98155518D02*
G01*
X197966627Y-98162037D01*
X198136466Y-98213557D01*
X198292991Y-98297222D01*
X198328729Y-98326552D01*
X198430186Y-98409814D01*
X198513448Y-98511271D01*
X198542778Y-98547009D01*
X198626443Y-98703534D01*
X198677963Y-98873373D01*
X198695359Y-99050000D01*
X198677963Y-99226627D01*
X198626443Y-99396466D01*
X198542778Y-99552991D01*
X198513448Y-99588729D01*
X198430186Y-99690186D01*
X198328729Y-99773448D01*
X198292991Y-99802778D01*
X198136466Y-99886443D01*
X197966627Y-99937963D01*
X197900443Y-99944481D01*
X197834260Y-99951000D01*
X197745740Y-99951000D01*
X197679557Y-99944481D01*
X197613373Y-99937963D01*
X197443534Y-99886443D01*
X197287009Y-99802778D01*
X197251271Y-99773448D01*
X197149814Y-99690186D01*
X197066552Y-99588729D01*
X197037222Y-99552991D01*
X196953557Y-99396466D01*
X196902037Y-99226627D01*
X196884641Y-99050000D01*
X196902037Y-98873373D01*
X196953557Y-98703534D01*
X197037222Y-98547009D01*
X197066552Y-98511271D01*
X197149814Y-98409814D01*
X197251271Y-98326552D01*
X197287009Y-98297222D01*
X197443534Y-98213557D01*
X197613373Y-98162037D01*
X197679557Y-98155519D01*
X197745740Y-98149000D01*
X197834260Y-98149000D01*
X197900442Y-98155518D01*
X197900442Y-98155518D01*
G37*
G36*
X175040443Y-95615519D02*
G01*
X175106627Y-95622037D01*
X175276466Y-95673557D01*
X175432991Y-95757222D01*
X175468729Y-95786552D01*
X175570186Y-95869814D01*
X175653448Y-95971271D01*
X175682778Y-96007009D01*
X175766443Y-96163534D01*
X175817963Y-96333373D01*
X175835359Y-96510000D01*
X175817963Y-96686627D01*
X175766443Y-96856466D01*
X175682778Y-97012991D01*
X175653448Y-97048729D01*
X175570186Y-97150186D01*
X175468729Y-97233448D01*
X175432991Y-97262778D01*
X175276466Y-97346443D01*
X175106627Y-97397963D01*
X175040442Y-97404482D01*
X174974260Y-97411000D01*
X174885740Y-97411000D01*
X174819558Y-97404482D01*
X174753373Y-97397963D01*
X174583534Y-97346443D01*
X174427009Y-97262778D01*
X174391271Y-97233448D01*
X174289814Y-97150186D01*
X174206552Y-97048729D01*
X174177222Y-97012991D01*
X174093557Y-96856466D01*
X174042037Y-96686627D01*
X174024641Y-96510000D01*
X174042037Y-96333373D01*
X174093557Y-96163534D01*
X174177222Y-96007009D01*
X174206552Y-95971271D01*
X174289814Y-95869814D01*
X174391271Y-95786552D01*
X174427009Y-95757222D01*
X174583534Y-95673557D01*
X174753373Y-95622037D01*
X174819558Y-95615518D01*
X174885740Y-95609000D01*
X174974260Y-95609000D01*
X175040443Y-95615519D01*
X175040443Y-95615519D01*
G37*
G36*
X152180443Y-95615519D02*
G01*
X152246627Y-95622037D01*
X152416466Y-95673557D01*
X152572991Y-95757222D01*
X152608729Y-95786552D01*
X152710186Y-95869814D01*
X152793448Y-95971271D01*
X152822778Y-96007009D01*
X152906443Y-96163534D01*
X152957963Y-96333373D01*
X152975359Y-96510000D01*
X152957963Y-96686627D01*
X152906443Y-96856466D01*
X152822778Y-97012991D01*
X152793448Y-97048729D01*
X152710186Y-97150186D01*
X152608729Y-97233448D01*
X152572991Y-97262778D01*
X152416466Y-97346443D01*
X152246627Y-97397963D01*
X152180442Y-97404482D01*
X152114260Y-97411000D01*
X152025740Y-97411000D01*
X151959558Y-97404482D01*
X151893373Y-97397963D01*
X151723534Y-97346443D01*
X151567009Y-97262778D01*
X151531271Y-97233448D01*
X151429814Y-97150186D01*
X151346552Y-97048729D01*
X151317222Y-97012991D01*
X151233557Y-96856466D01*
X151182037Y-96686627D01*
X151164641Y-96510000D01*
X151182037Y-96333373D01*
X151233557Y-96163534D01*
X151317222Y-96007009D01*
X151346552Y-95971271D01*
X151429814Y-95869814D01*
X151531271Y-95786552D01*
X151567009Y-95757222D01*
X151723534Y-95673557D01*
X151893373Y-95622037D01*
X151959558Y-95615518D01*
X152025740Y-95609000D01*
X152114260Y-95609000D01*
X152180443Y-95615519D01*
X152180443Y-95615519D01*
G37*
G36*
X129320443Y-95615519D02*
G01*
X129386627Y-95622037D01*
X129556466Y-95673557D01*
X129712991Y-95757222D01*
X129748729Y-95786552D01*
X129850186Y-95869814D01*
X129933448Y-95971271D01*
X129962778Y-96007009D01*
X130046443Y-96163534D01*
X130097963Y-96333373D01*
X130115359Y-96510000D01*
X130097963Y-96686627D01*
X130046443Y-96856466D01*
X129962778Y-97012991D01*
X129933448Y-97048729D01*
X129850186Y-97150186D01*
X129748729Y-97233448D01*
X129712991Y-97262778D01*
X129556466Y-97346443D01*
X129386627Y-97397963D01*
X129320442Y-97404482D01*
X129254260Y-97411000D01*
X129165740Y-97411000D01*
X129099558Y-97404482D01*
X129033373Y-97397963D01*
X128863534Y-97346443D01*
X128707009Y-97262778D01*
X128671271Y-97233448D01*
X128569814Y-97150186D01*
X128486552Y-97048729D01*
X128457222Y-97012991D01*
X128373557Y-96856466D01*
X128322037Y-96686627D01*
X128304641Y-96510000D01*
X128322037Y-96333373D01*
X128373557Y-96163534D01*
X128457222Y-96007009D01*
X128486552Y-95971271D01*
X128569814Y-95869814D01*
X128671271Y-95786552D01*
X128707009Y-95757222D01*
X128863534Y-95673557D01*
X129033373Y-95622037D01*
X129099558Y-95615518D01*
X129165740Y-95609000D01*
X129254260Y-95609000D01*
X129320443Y-95615519D01*
X129320443Y-95615519D01*
G37*
G36*
X197900443Y-95615519D02*
G01*
X197966627Y-95622037D01*
X198136466Y-95673557D01*
X198292991Y-95757222D01*
X198328729Y-95786552D01*
X198430186Y-95869814D01*
X198513448Y-95971271D01*
X198542778Y-96007009D01*
X198626443Y-96163534D01*
X198677963Y-96333373D01*
X198695359Y-96510000D01*
X198677963Y-96686627D01*
X198626443Y-96856466D01*
X198542778Y-97012991D01*
X198513448Y-97048729D01*
X198430186Y-97150186D01*
X198328729Y-97233448D01*
X198292991Y-97262778D01*
X198136466Y-97346443D01*
X197966627Y-97397963D01*
X197900442Y-97404482D01*
X197834260Y-97411000D01*
X197745740Y-97411000D01*
X197679558Y-97404482D01*
X197613373Y-97397963D01*
X197443534Y-97346443D01*
X197287009Y-97262778D01*
X197251271Y-97233448D01*
X197149814Y-97150186D01*
X197066552Y-97048729D01*
X197037222Y-97012991D01*
X196953557Y-96856466D01*
X196902037Y-96686627D01*
X196884641Y-96510000D01*
X196902037Y-96333373D01*
X196953557Y-96163534D01*
X197037222Y-96007009D01*
X197066552Y-95971271D01*
X197149814Y-95869814D01*
X197251271Y-95786552D01*
X197287009Y-95757222D01*
X197443534Y-95673557D01*
X197613373Y-95622037D01*
X197679558Y-95615518D01*
X197745740Y-95609000D01*
X197834260Y-95609000D01*
X197900443Y-95615519D01*
X197900443Y-95615519D01*
G37*
G36*
X197900442Y-93075518D02*
G01*
X197966627Y-93082037D01*
X198136466Y-93133557D01*
X198292991Y-93217222D01*
X198328729Y-93246552D01*
X198430186Y-93329814D01*
X198513448Y-93431271D01*
X198542778Y-93467009D01*
X198626443Y-93623534D01*
X198677963Y-93793373D01*
X198695359Y-93970000D01*
X198677963Y-94146627D01*
X198626443Y-94316466D01*
X198542778Y-94472991D01*
X198513448Y-94508729D01*
X198430186Y-94610186D01*
X198328729Y-94693448D01*
X198292991Y-94722778D01*
X198136466Y-94806443D01*
X197966627Y-94857963D01*
X197900442Y-94864482D01*
X197834260Y-94871000D01*
X197745740Y-94871000D01*
X197679557Y-94864481D01*
X197613373Y-94857963D01*
X197443534Y-94806443D01*
X197287009Y-94722778D01*
X197251271Y-94693448D01*
X197149814Y-94610186D01*
X197066552Y-94508729D01*
X197037222Y-94472991D01*
X196953557Y-94316466D01*
X196902037Y-94146627D01*
X196884641Y-93970000D01*
X196902037Y-93793373D01*
X196953557Y-93623534D01*
X197037222Y-93467009D01*
X197066552Y-93431271D01*
X197149814Y-93329814D01*
X197251271Y-93246552D01*
X197287009Y-93217222D01*
X197443534Y-93133557D01*
X197613373Y-93082037D01*
X197679557Y-93075519D01*
X197745740Y-93069000D01*
X197834260Y-93069000D01*
X197900442Y-93075518D01*
X197900442Y-93075518D01*
G37*
G36*
X129320442Y-93075518D02*
G01*
X129386627Y-93082037D01*
X129556466Y-93133557D01*
X129712991Y-93217222D01*
X129748729Y-93246552D01*
X129850186Y-93329814D01*
X129933448Y-93431271D01*
X129962778Y-93467009D01*
X130046443Y-93623534D01*
X130097963Y-93793373D01*
X130115359Y-93970000D01*
X130097963Y-94146627D01*
X130046443Y-94316466D01*
X129962778Y-94472991D01*
X129933448Y-94508729D01*
X129850186Y-94610186D01*
X129748729Y-94693448D01*
X129712991Y-94722778D01*
X129556466Y-94806443D01*
X129386627Y-94857963D01*
X129320442Y-94864482D01*
X129254260Y-94871000D01*
X129165740Y-94871000D01*
X129099557Y-94864481D01*
X129033373Y-94857963D01*
X128863534Y-94806443D01*
X128707009Y-94722778D01*
X128671271Y-94693448D01*
X128569814Y-94610186D01*
X128486552Y-94508729D01*
X128457222Y-94472991D01*
X128373557Y-94316466D01*
X128322037Y-94146627D01*
X128304641Y-93970000D01*
X128322037Y-93793373D01*
X128373557Y-93623534D01*
X128457222Y-93467009D01*
X128486552Y-93431271D01*
X128569814Y-93329814D01*
X128671271Y-93246552D01*
X128707009Y-93217222D01*
X128863534Y-93133557D01*
X129033373Y-93082037D01*
X129099557Y-93075519D01*
X129165740Y-93069000D01*
X129254260Y-93069000D01*
X129320442Y-93075518D01*
X129320442Y-93075518D01*
G37*
G36*
X175040442Y-93075518D02*
G01*
X175106627Y-93082037D01*
X175276466Y-93133557D01*
X175432991Y-93217222D01*
X175468729Y-93246552D01*
X175570186Y-93329814D01*
X175653448Y-93431271D01*
X175682778Y-93467009D01*
X175766443Y-93623534D01*
X175817963Y-93793373D01*
X175835359Y-93970000D01*
X175817963Y-94146627D01*
X175766443Y-94316466D01*
X175682778Y-94472991D01*
X175653448Y-94508729D01*
X175570186Y-94610186D01*
X175468729Y-94693448D01*
X175432991Y-94722778D01*
X175276466Y-94806443D01*
X175106627Y-94857963D01*
X175040442Y-94864482D01*
X174974260Y-94871000D01*
X174885740Y-94871000D01*
X174819557Y-94864481D01*
X174753373Y-94857963D01*
X174583534Y-94806443D01*
X174427009Y-94722778D01*
X174391271Y-94693448D01*
X174289814Y-94610186D01*
X174206552Y-94508729D01*
X174177222Y-94472991D01*
X174093557Y-94316466D01*
X174042037Y-94146627D01*
X174024641Y-93970000D01*
X174042037Y-93793373D01*
X174093557Y-93623534D01*
X174177222Y-93467009D01*
X174206552Y-93431271D01*
X174289814Y-93329814D01*
X174391271Y-93246552D01*
X174427009Y-93217222D01*
X174583534Y-93133557D01*
X174753373Y-93082037D01*
X174819557Y-93075519D01*
X174885740Y-93069000D01*
X174974260Y-93069000D01*
X175040442Y-93075518D01*
X175040442Y-93075518D01*
G37*
G36*
X152180442Y-93075518D02*
G01*
X152246627Y-93082037D01*
X152416466Y-93133557D01*
X152572991Y-93217222D01*
X152608729Y-93246552D01*
X152710186Y-93329814D01*
X152793448Y-93431271D01*
X152822778Y-93467009D01*
X152906443Y-93623534D01*
X152957963Y-93793373D01*
X152975359Y-93970000D01*
X152957963Y-94146627D01*
X152906443Y-94316466D01*
X152822778Y-94472991D01*
X152793448Y-94508729D01*
X152710186Y-94610186D01*
X152608729Y-94693448D01*
X152572991Y-94722778D01*
X152416466Y-94806443D01*
X152246627Y-94857963D01*
X152180442Y-94864482D01*
X152114260Y-94871000D01*
X152025740Y-94871000D01*
X151959557Y-94864481D01*
X151893373Y-94857963D01*
X151723534Y-94806443D01*
X151567009Y-94722778D01*
X151531271Y-94693448D01*
X151429814Y-94610186D01*
X151346552Y-94508729D01*
X151317222Y-94472991D01*
X151233557Y-94316466D01*
X151182037Y-94146627D01*
X151164641Y-93970000D01*
X151182037Y-93793373D01*
X151233557Y-93623534D01*
X151317222Y-93467009D01*
X151346552Y-93431271D01*
X151429814Y-93329814D01*
X151531271Y-93246552D01*
X151567009Y-93217222D01*
X151723534Y-93133557D01*
X151893373Y-93082037D01*
X151959557Y-93075519D01*
X152025740Y-93069000D01*
X152114260Y-93069000D01*
X152180442Y-93075518D01*
X152180442Y-93075518D01*
G37*
G36*
X129320442Y-90535518D02*
G01*
X129386627Y-90542037D01*
X129556466Y-90593557D01*
X129712991Y-90677222D01*
X129748729Y-90706552D01*
X129850186Y-90789814D01*
X129933448Y-90891271D01*
X129962778Y-90927009D01*
X130046443Y-91083534D01*
X130097963Y-91253373D01*
X130115359Y-91430000D01*
X130097963Y-91606627D01*
X130046443Y-91776466D01*
X129962778Y-91932991D01*
X129933448Y-91968729D01*
X129850186Y-92070186D01*
X129748729Y-92153448D01*
X129712991Y-92182778D01*
X129556466Y-92266443D01*
X129386627Y-92317963D01*
X129320442Y-92324482D01*
X129254260Y-92331000D01*
X129165740Y-92331000D01*
X129099558Y-92324482D01*
X129033373Y-92317963D01*
X128863534Y-92266443D01*
X128707009Y-92182778D01*
X128671271Y-92153448D01*
X128569814Y-92070186D01*
X128486552Y-91968729D01*
X128457222Y-91932991D01*
X128373557Y-91776466D01*
X128322037Y-91606627D01*
X128304641Y-91430000D01*
X128322037Y-91253373D01*
X128373557Y-91083534D01*
X128457222Y-90927009D01*
X128486552Y-90891271D01*
X128569814Y-90789814D01*
X128671271Y-90706552D01*
X128707009Y-90677222D01*
X128863534Y-90593557D01*
X129033373Y-90542037D01*
X129099558Y-90535518D01*
X129165740Y-90529000D01*
X129254260Y-90529000D01*
X129320442Y-90535518D01*
X129320442Y-90535518D01*
G37*
G36*
X152180442Y-90535518D02*
G01*
X152246627Y-90542037D01*
X152416466Y-90593557D01*
X152572991Y-90677222D01*
X152608729Y-90706552D01*
X152710186Y-90789814D01*
X152793448Y-90891271D01*
X152822778Y-90927009D01*
X152906443Y-91083534D01*
X152957963Y-91253373D01*
X152975359Y-91430000D01*
X152957963Y-91606627D01*
X152906443Y-91776466D01*
X152822778Y-91932991D01*
X152793448Y-91968729D01*
X152710186Y-92070186D01*
X152608729Y-92153448D01*
X152572991Y-92182778D01*
X152416466Y-92266443D01*
X152246627Y-92317963D01*
X152180442Y-92324482D01*
X152114260Y-92331000D01*
X152025740Y-92331000D01*
X151959558Y-92324482D01*
X151893373Y-92317963D01*
X151723534Y-92266443D01*
X151567009Y-92182778D01*
X151531271Y-92153448D01*
X151429814Y-92070186D01*
X151346552Y-91968729D01*
X151317222Y-91932991D01*
X151233557Y-91776466D01*
X151182037Y-91606627D01*
X151164641Y-91430000D01*
X151182037Y-91253373D01*
X151233557Y-91083534D01*
X151317222Y-90927009D01*
X151346552Y-90891271D01*
X151429814Y-90789814D01*
X151531271Y-90706552D01*
X151567009Y-90677222D01*
X151723534Y-90593557D01*
X151893373Y-90542037D01*
X151959558Y-90535518D01*
X152025740Y-90529000D01*
X152114260Y-90529000D01*
X152180442Y-90535518D01*
X152180442Y-90535518D01*
G37*
G36*
X197900442Y-90535518D02*
G01*
X197966627Y-90542037D01*
X198136466Y-90593557D01*
X198292991Y-90677222D01*
X198328729Y-90706552D01*
X198430186Y-90789814D01*
X198513448Y-90891271D01*
X198542778Y-90927009D01*
X198626443Y-91083534D01*
X198677963Y-91253373D01*
X198695359Y-91430000D01*
X198677963Y-91606627D01*
X198626443Y-91776466D01*
X198542778Y-91932991D01*
X198513448Y-91968729D01*
X198430186Y-92070186D01*
X198328729Y-92153448D01*
X198292991Y-92182778D01*
X198136466Y-92266443D01*
X197966627Y-92317963D01*
X197900442Y-92324482D01*
X197834260Y-92331000D01*
X197745740Y-92331000D01*
X197679558Y-92324482D01*
X197613373Y-92317963D01*
X197443534Y-92266443D01*
X197287009Y-92182778D01*
X197251271Y-92153448D01*
X197149814Y-92070186D01*
X197066552Y-91968729D01*
X197037222Y-91932991D01*
X196953557Y-91776466D01*
X196902037Y-91606627D01*
X196884641Y-91430000D01*
X196902037Y-91253373D01*
X196953557Y-91083534D01*
X197037222Y-90927009D01*
X197066552Y-90891271D01*
X197149814Y-90789814D01*
X197251271Y-90706552D01*
X197287009Y-90677222D01*
X197443534Y-90593557D01*
X197613373Y-90542037D01*
X197679557Y-90535519D01*
X197745740Y-90529000D01*
X197834260Y-90529000D01*
X197900442Y-90535518D01*
X197900442Y-90535518D01*
G37*
G36*
X175040442Y-90535518D02*
G01*
X175106627Y-90542037D01*
X175276466Y-90593557D01*
X175432991Y-90677222D01*
X175468729Y-90706552D01*
X175570186Y-90789814D01*
X175653448Y-90891271D01*
X175682778Y-90927009D01*
X175766443Y-91083534D01*
X175817963Y-91253373D01*
X175835359Y-91430000D01*
X175817963Y-91606627D01*
X175766443Y-91776466D01*
X175682778Y-91932991D01*
X175653448Y-91968729D01*
X175570186Y-92070186D01*
X175468729Y-92153448D01*
X175432991Y-92182778D01*
X175276466Y-92266443D01*
X175106627Y-92317963D01*
X175040442Y-92324482D01*
X174974260Y-92331000D01*
X174885740Y-92331000D01*
X174819558Y-92324482D01*
X174753373Y-92317963D01*
X174583534Y-92266443D01*
X174427009Y-92182778D01*
X174391271Y-92153448D01*
X174289814Y-92070186D01*
X174206552Y-91968729D01*
X174177222Y-91932991D01*
X174093557Y-91776466D01*
X174042037Y-91606627D01*
X174024641Y-91430000D01*
X174042037Y-91253373D01*
X174093557Y-91083534D01*
X174177222Y-90927009D01*
X174206552Y-90891271D01*
X174289814Y-90789814D01*
X174391271Y-90706552D01*
X174427009Y-90677222D01*
X174583534Y-90593557D01*
X174753373Y-90542037D01*
X174819557Y-90535519D01*
X174885740Y-90529000D01*
X174974260Y-90529000D01*
X175040442Y-90535518D01*
X175040442Y-90535518D01*
G37*
G36*
X175040442Y-87995518D02*
G01*
X175106627Y-88002037D01*
X175276466Y-88053557D01*
X175432991Y-88137222D01*
X175468729Y-88166552D01*
X175570186Y-88249814D01*
X175653448Y-88351271D01*
X175682778Y-88387009D01*
X175766443Y-88543534D01*
X175817963Y-88713373D01*
X175835359Y-88890000D01*
X175817963Y-89066627D01*
X175766443Y-89236466D01*
X175682778Y-89392991D01*
X175653448Y-89428729D01*
X175570186Y-89530186D01*
X175468729Y-89613448D01*
X175432991Y-89642778D01*
X175276466Y-89726443D01*
X175106627Y-89777963D01*
X175040442Y-89784482D01*
X174974260Y-89791000D01*
X174885740Y-89791000D01*
X174819558Y-89784482D01*
X174753373Y-89777963D01*
X174583534Y-89726443D01*
X174427009Y-89642778D01*
X174391271Y-89613448D01*
X174289814Y-89530186D01*
X174206552Y-89428729D01*
X174177222Y-89392991D01*
X174093557Y-89236466D01*
X174042037Y-89066627D01*
X174024641Y-88890000D01*
X174042037Y-88713373D01*
X174093557Y-88543534D01*
X174177222Y-88387009D01*
X174206552Y-88351271D01*
X174289814Y-88249814D01*
X174391271Y-88166552D01*
X174427009Y-88137222D01*
X174583534Y-88053557D01*
X174753373Y-88002037D01*
X174819558Y-87995518D01*
X174885740Y-87989000D01*
X174974260Y-87989000D01*
X175040442Y-87995518D01*
X175040442Y-87995518D01*
G37*
G36*
X197900442Y-87995518D02*
G01*
X197966627Y-88002037D01*
X198136466Y-88053557D01*
X198292991Y-88137222D01*
X198328729Y-88166552D01*
X198430186Y-88249814D01*
X198513448Y-88351271D01*
X198542778Y-88387009D01*
X198626443Y-88543534D01*
X198677963Y-88713373D01*
X198695359Y-88890000D01*
X198677963Y-89066627D01*
X198626443Y-89236466D01*
X198542778Y-89392991D01*
X198513448Y-89428729D01*
X198430186Y-89530186D01*
X198328729Y-89613448D01*
X198292991Y-89642778D01*
X198136466Y-89726443D01*
X197966627Y-89777963D01*
X197900442Y-89784482D01*
X197834260Y-89791000D01*
X197745740Y-89791000D01*
X197679558Y-89784482D01*
X197613373Y-89777963D01*
X197443534Y-89726443D01*
X197287009Y-89642778D01*
X197251271Y-89613448D01*
X197149814Y-89530186D01*
X197066552Y-89428729D01*
X197037222Y-89392991D01*
X196953557Y-89236466D01*
X196902037Y-89066627D01*
X196884641Y-88890000D01*
X196902037Y-88713373D01*
X196953557Y-88543534D01*
X197037222Y-88387009D01*
X197066552Y-88351271D01*
X197149814Y-88249814D01*
X197251271Y-88166552D01*
X197287009Y-88137222D01*
X197443534Y-88053557D01*
X197613373Y-88002037D01*
X197679558Y-87995518D01*
X197745740Y-87989000D01*
X197834260Y-87989000D01*
X197900442Y-87995518D01*
X197900442Y-87995518D01*
G37*
G36*
X152180442Y-87995518D02*
G01*
X152246627Y-88002037D01*
X152416466Y-88053557D01*
X152572991Y-88137222D01*
X152608729Y-88166552D01*
X152710186Y-88249814D01*
X152793448Y-88351271D01*
X152822778Y-88387009D01*
X152906443Y-88543534D01*
X152957963Y-88713373D01*
X152975359Y-88890000D01*
X152957963Y-89066627D01*
X152906443Y-89236466D01*
X152822778Y-89392991D01*
X152793448Y-89428729D01*
X152710186Y-89530186D01*
X152608729Y-89613448D01*
X152572991Y-89642778D01*
X152416466Y-89726443D01*
X152246627Y-89777963D01*
X152180442Y-89784482D01*
X152114260Y-89791000D01*
X152025740Y-89791000D01*
X151959558Y-89784482D01*
X151893373Y-89777963D01*
X151723534Y-89726443D01*
X151567009Y-89642778D01*
X151531271Y-89613448D01*
X151429814Y-89530186D01*
X151346552Y-89428729D01*
X151317222Y-89392991D01*
X151233557Y-89236466D01*
X151182037Y-89066627D01*
X151164641Y-88890000D01*
X151182037Y-88713373D01*
X151233557Y-88543534D01*
X151317222Y-88387009D01*
X151346552Y-88351271D01*
X151429814Y-88249814D01*
X151531271Y-88166552D01*
X151567009Y-88137222D01*
X151723534Y-88053557D01*
X151893373Y-88002037D01*
X151959558Y-87995518D01*
X152025740Y-87989000D01*
X152114260Y-87989000D01*
X152180442Y-87995518D01*
X152180442Y-87995518D01*
G37*
G36*
X129320442Y-87995518D02*
G01*
X129386627Y-88002037D01*
X129556466Y-88053557D01*
X129712991Y-88137222D01*
X129748729Y-88166552D01*
X129850186Y-88249814D01*
X129933448Y-88351271D01*
X129962778Y-88387009D01*
X130046443Y-88543534D01*
X130097963Y-88713373D01*
X130115359Y-88890000D01*
X130097963Y-89066627D01*
X130046443Y-89236466D01*
X129962778Y-89392991D01*
X129933448Y-89428729D01*
X129850186Y-89530186D01*
X129748729Y-89613448D01*
X129712991Y-89642778D01*
X129556466Y-89726443D01*
X129386627Y-89777963D01*
X129320442Y-89784482D01*
X129254260Y-89791000D01*
X129165740Y-89791000D01*
X129099558Y-89784482D01*
X129033373Y-89777963D01*
X128863534Y-89726443D01*
X128707009Y-89642778D01*
X128671271Y-89613448D01*
X128569814Y-89530186D01*
X128486552Y-89428729D01*
X128457222Y-89392991D01*
X128373557Y-89236466D01*
X128322037Y-89066627D01*
X128304641Y-88890000D01*
X128322037Y-88713373D01*
X128373557Y-88543534D01*
X128457222Y-88387009D01*
X128486552Y-88351271D01*
X128569814Y-88249814D01*
X128671271Y-88166552D01*
X128707009Y-88137222D01*
X128863534Y-88053557D01*
X129033373Y-88002037D01*
X129099558Y-87995518D01*
X129165740Y-87989000D01*
X129254260Y-87989000D01*
X129320442Y-87995518D01*
X129320442Y-87995518D01*
G37*
G36*
X175040443Y-85455519D02*
G01*
X175106627Y-85462037D01*
X175276466Y-85513557D01*
X175432991Y-85597222D01*
X175468729Y-85626552D01*
X175570186Y-85709814D01*
X175653448Y-85811271D01*
X175682778Y-85847009D01*
X175766443Y-86003534D01*
X175817963Y-86173373D01*
X175835359Y-86350000D01*
X175817963Y-86526627D01*
X175766443Y-86696466D01*
X175682778Y-86852991D01*
X175653448Y-86888729D01*
X175570186Y-86990186D01*
X175468729Y-87073448D01*
X175432991Y-87102778D01*
X175276466Y-87186443D01*
X175106627Y-87237963D01*
X175040442Y-87244482D01*
X174974260Y-87251000D01*
X174885740Y-87251000D01*
X174819558Y-87244482D01*
X174753373Y-87237963D01*
X174583534Y-87186443D01*
X174427009Y-87102778D01*
X174391271Y-87073448D01*
X174289814Y-86990186D01*
X174206552Y-86888729D01*
X174177222Y-86852991D01*
X174093557Y-86696466D01*
X174042037Y-86526627D01*
X174024641Y-86350000D01*
X174042037Y-86173373D01*
X174093557Y-86003534D01*
X174177222Y-85847009D01*
X174206552Y-85811271D01*
X174289814Y-85709814D01*
X174391271Y-85626552D01*
X174427009Y-85597222D01*
X174583534Y-85513557D01*
X174753373Y-85462037D01*
X174819557Y-85455519D01*
X174885740Y-85449000D01*
X174974260Y-85449000D01*
X175040443Y-85455519D01*
X175040443Y-85455519D01*
G37*
G36*
X197900443Y-85455519D02*
G01*
X197966627Y-85462037D01*
X198136466Y-85513557D01*
X198292991Y-85597222D01*
X198328729Y-85626552D01*
X198430186Y-85709814D01*
X198513448Y-85811271D01*
X198542778Y-85847009D01*
X198626443Y-86003534D01*
X198677963Y-86173373D01*
X198695359Y-86350000D01*
X198677963Y-86526627D01*
X198626443Y-86696466D01*
X198542778Y-86852991D01*
X198513448Y-86888729D01*
X198430186Y-86990186D01*
X198328729Y-87073448D01*
X198292991Y-87102778D01*
X198136466Y-87186443D01*
X197966627Y-87237963D01*
X197900443Y-87244481D01*
X197834260Y-87251000D01*
X197745740Y-87251000D01*
X197679558Y-87244482D01*
X197613373Y-87237963D01*
X197443534Y-87186443D01*
X197287009Y-87102778D01*
X197251271Y-87073448D01*
X197149814Y-86990186D01*
X197066552Y-86888729D01*
X197037222Y-86852991D01*
X196953557Y-86696466D01*
X196902037Y-86526627D01*
X196884641Y-86350000D01*
X196902037Y-86173373D01*
X196953557Y-86003534D01*
X197037222Y-85847009D01*
X197066552Y-85811271D01*
X197149814Y-85709814D01*
X197251271Y-85626552D01*
X197287009Y-85597222D01*
X197443534Y-85513557D01*
X197613373Y-85462037D01*
X197679557Y-85455519D01*
X197745740Y-85449000D01*
X197834260Y-85449000D01*
X197900443Y-85455519D01*
X197900443Y-85455519D01*
G37*
G36*
X129320443Y-85455519D02*
G01*
X129386627Y-85462037D01*
X129556466Y-85513557D01*
X129712991Y-85597222D01*
X129748729Y-85626552D01*
X129850186Y-85709814D01*
X129933448Y-85811271D01*
X129962778Y-85847009D01*
X130046443Y-86003534D01*
X130097963Y-86173373D01*
X130115359Y-86350000D01*
X130097963Y-86526627D01*
X130046443Y-86696466D01*
X129962778Y-86852991D01*
X129933448Y-86888729D01*
X129850186Y-86990186D01*
X129748729Y-87073448D01*
X129712991Y-87102778D01*
X129556466Y-87186443D01*
X129386627Y-87237963D01*
X129320442Y-87244482D01*
X129254260Y-87251000D01*
X129165740Y-87251000D01*
X129099558Y-87244482D01*
X129033373Y-87237963D01*
X128863534Y-87186443D01*
X128707009Y-87102778D01*
X128671271Y-87073448D01*
X128569814Y-86990186D01*
X128486552Y-86888729D01*
X128457222Y-86852991D01*
X128373557Y-86696466D01*
X128322037Y-86526627D01*
X128304641Y-86350000D01*
X128322037Y-86173373D01*
X128373557Y-86003534D01*
X128457222Y-85847009D01*
X128486552Y-85811271D01*
X128569814Y-85709814D01*
X128671271Y-85626552D01*
X128707009Y-85597222D01*
X128863534Y-85513557D01*
X129033373Y-85462037D01*
X129099557Y-85455519D01*
X129165740Y-85449000D01*
X129254260Y-85449000D01*
X129320443Y-85455519D01*
X129320443Y-85455519D01*
G37*
G36*
X152180443Y-85455519D02*
G01*
X152246627Y-85462037D01*
X152416466Y-85513557D01*
X152572991Y-85597222D01*
X152608729Y-85626552D01*
X152710186Y-85709814D01*
X152793448Y-85811271D01*
X152822778Y-85847009D01*
X152906443Y-86003534D01*
X152957963Y-86173373D01*
X152975359Y-86350000D01*
X152957963Y-86526627D01*
X152906443Y-86696466D01*
X152822778Y-86852991D01*
X152793448Y-86888729D01*
X152710186Y-86990186D01*
X152608729Y-87073448D01*
X152572991Y-87102778D01*
X152416466Y-87186443D01*
X152246627Y-87237963D01*
X152180442Y-87244482D01*
X152114260Y-87251000D01*
X152025740Y-87251000D01*
X151959558Y-87244482D01*
X151893373Y-87237963D01*
X151723534Y-87186443D01*
X151567009Y-87102778D01*
X151531271Y-87073448D01*
X151429814Y-86990186D01*
X151346552Y-86888729D01*
X151317222Y-86852991D01*
X151233557Y-86696466D01*
X151182037Y-86526627D01*
X151164641Y-86350000D01*
X151182037Y-86173373D01*
X151233557Y-86003534D01*
X151317222Y-85847009D01*
X151346552Y-85811271D01*
X151429814Y-85709814D01*
X151531271Y-85626552D01*
X151567009Y-85597222D01*
X151723534Y-85513557D01*
X151893373Y-85462037D01*
X151959557Y-85455519D01*
X152025740Y-85449000D01*
X152114260Y-85449000D01*
X152180443Y-85455519D01*
X152180443Y-85455519D01*
G37*
G36*
X197900442Y-82915518D02*
G01*
X197966627Y-82922037D01*
X198136466Y-82973557D01*
X198292991Y-83057222D01*
X198328729Y-83086552D01*
X198430186Y-83169814D01*
X198513448Y-83271271D01*
X198542778Y-83307009D01*
X198626443Y-83463534D01*
X198677963Y-83633373D01*
X198695359Y-83810000D01*
X198677963Y-83986627D01*
X198626443Y-84156466D01*
X198542778Y-84312991D01*
X198513448Y-84348729D01*
X198430186Y-84450186D01*
X198328729Y-84533448D01*
X198292991Y-84562778D01*
X198136466Y-84646443D01*
X197966627Y-84697963D01*
X197900443Y-84704481D01*
X197834260Y-84711000D01*
X197745740Y-84711000D01*
X197679557Y-84704481D01*
X197613373Y-84697963D01*
X197443534Y-84646443D01*
X197287009Y-84562778D01*
X197251271Y-84533448D01*
X197149814Y-84450186D01*
X197066552Y-84348729D01*
X197037222Y-84312991D01*
X196953557Y-84156466D01*
X196902037Y-83986627D01*
X196884641Y-83810000D01*
X196902037Y-83633373D01*
X196953557Y-83463534D01*
X197037222Y-83307009D01*
X197066552Y-83271271D01*
X197149814Y-83169814D01*
X197251271Y-83086552D01*
X197287009Y-83057222D01*
X197443534Y-82973557D01*
X197613373Y-82922037D01*
X197679558Y-82915518D01*
X197745740Y-82909000D01*
X197834260Y-82909000D01*
X197900442Y-82915518D01*
X197900442Y-82915518D01*
G37*
G36*
X175040442Y-82915518D02*
G01*
X175106627Y-82922037D01*
X175276466Y-82973557D01*
X175432991Y-83057222D01*
X175468729Y-83086552D01*
X175570186Y-83169814D01*
X175653448Y-83271271D01*
X175682778Y-83307009D01*
X175766443Y-83463534D01*
X175817963Y-83633373D01*
X175835359Y-83810000D01*
X175817963Y-83986627D01*
X175766443Y-84156466D01*
X175682778Y-84312991D01*
X175653448Y-84348729D01*
X175570186Y-84450186D01*
X175468729Y-84533448D01*
X175432991Y-84562778D01*
X175276466Y-84646443D01*
X175106627Y-84697963D01*
X175040443Y-84704481D01*
X174974260Y-84711000D01*
X174885740Y-84711000D01*
X174819557Y-84704481D01*
X174753373Y-84697963D01*
X174583534Y-84646443D01*
X174427009Y-84562778D01*
X174391271Y-84533448D01*
X174289814Y-84450186D01*
X174206552Y-84348729D01*
X174177222Y-84312991D01*
X174093557Y-84156466D01*
X174042037Y-83986627D01*
X174024641Y-83810000D01*
X174042037Y-83633373D01*
X174093557Y-83463534D01*
X174177222Y-83307009D01*
X174206552Y-83271271D01*
X174289814Y-83169814D01*
X174391271Y-83086552D01*
X174427009Y-83057222D01*
X174583534Y-82973557D01*
X174753373Y-82922037D01*
X174819558Y-82915518D01*
X174885740Y-82909000D01*
X174974260Y-82909000D01*
X175040442Y-82915518D01*
X175040442Y-82915518D01*
G37*
G36*
X152180442Y-82915518D02*
G01*
X152246627Y-82922037D01*
X152416466Y-82973557D01*
X152572991Y-83057222D01*
X152608729Y-83086552D01*
X152710186Y-83169814D01*
X152793448Y-83271271D01*
X152822778Y-83307009D01*
X152906443Y-83463534D01*
X152957963Y-83633373D01*
X152975359Y-83810000D01*
X152957963Y-83986627D01*
X152906443Y-84156466D01*
X152822778Y-84312991D01*
X152793448Y-84348729D01*
X152710186Y-84450186D01*
X152608729Y-84533448D01*
X152572991Y-84562778D01*
X152416466Y-84646443D01*
X152246627Y-84697963D01*
X152180443Y-84704481D01*
X152114260Y-84711000D01*
X152025740Y-84711000D01*
X151959557Y-84704481D01*
X151893373Y-84697963D01*
X151723534Y-84646443D01*
X151567009Y-84562778D01*
X151531271Y-84533448D01*
X151429814Y-84450186D01*
X151346552Y-84348729D01*
X151317222Y-84312991D01*
X151233557Y-84156466D01*
X151182037Y-83986627D01*
X151164641Y-83810000D01*
X151182037Y-83633373D01*
X151233557Y-83463534D01*
X151317222Y-83307009D01*
X151346552Y-83271271D01*
X151429814Y-83169814D01*
X151531271Y-83086552D01*
X151567009Y-83057222D01*
X151723534Y-82973557D01*
X151893373Y-82922037D01*
X151959558Y-82915518D01*
X152025740Y-82909000D01*
X152114260Y-82909000D01*
X152180442Y-82915518D01*
X152180442Y-82915518D01*
G37*
G36*
X129320442Y-82915518D02*
G01*
X129386627Y-82922037D01*
X129556466Y-82973557D01*
X129712991Y-83057222D01*
X129748729Y-83086552D01*
X129850186Y-83169814D01*
X129933448Y-83271271D01*
X129962778Y-83307009D01*
X130046443Y-83463534D01*
X130097963Y-83633373D01*
X130115359Y-83810000D01*
X130097963Y-83986627D01*
X130046443Y-84156466D01*
X129962778Y-84312991D01*
X129933448Y-84348729D01*
X129850186Y-84450186D01*
X129748729Y-84533448D01*
X129712991Y-84562778D01*
X129556466Y-84646443D01*
X129386627Y-84697963D01*
X129320443Y-84704481D01*
X129254260Y-84711000D01*
X129165740Y-84711000D01*
X129099557Y-84704481D01*
X129033373Y-84697963D01*
X128863534Y-84646443D01*
X128707009Y-84562778D01*
X128671271Y-84533448D01*
X128569814Y-84450186D01*
X128486552Y-84348729D01*
X128457222Y-84312991D01*
X128373557Y-84156466D01*
X128322037Y-83986627D01*
X128304641Y-83810000D01*
X128322037Y-83633373D01*
X128373557Y-83463534D01*
X128457222Y-83307009D01*
X128486552Y-83271271D01*
X128569814Y-83169814D01*
X128671271Y-83086552D01*
X128707009Y-83057222D01*
X128863534Y-82973557D01*
X129033373Y-82922037D01*
X129099558Y-82915518D01*
X129165740Y-82909000D01*
X129254260Y-82909000D01*
X129320442Y-82915518D01*
X129320442Y-82915518D01*
G37*
M02*
