M48
; DRILL file {KiCad 5.1.0-060a0da~80~ubuntu16.04.1} date Di 09 Apr 2019 13:02:19 CEST
; FORMAT={-:-/ absolute / inch / decimal}
; #@! TF.CreationDate,2019-04-09T13:02:19+02:00
; #@! TF.GenerationSoftware,Kicad,Pcbnew,5.1.0-060a0da~80~ubuntu16.04.1
; #@! TF.FileFunction,Plated,1,2,PTH
FMAT,2
INCH
T1C0.0118
T2C0.0394
%
G90
G05
T1
X4.062Y-3.6246
X4.187Y-3.4996
X4.187Y-3.7996
X4.187Y-4.0996
X4.262Y-3.7746
X4.287Y-4.1996
X4.312Y-3.5496
X4.362Y-3.4746
X4.362Y-3.9496
X4.362Y-4.8246
X4.412Y-4.0996
X4.412Y-4.9496
X4.437Y-3.3496
X4.437Y-4.1732
X4.437Y-4.4746
X4.487Y-3.4246
X4.487Y-3.8246
X4.487Y-4.1996
X4.487Y-4.4746
X4.487Y-4.8746
X4.512Y-3.6746
X4.512Y-3.8996
X4.512Y-4.7246
X4.512Y-4.9496
X4.537Y-3.6246
X4.537Y-3.9496
X4.537Y-4.6746
X4.537Y-4.9996
X4.562Y-3.5746
X4.562Y-4.0496
X4.562Y-4.6246
X4.562Y-5.0996
X4.587Y-3.7746
X4.587Y-4.0746
X4.587Y-4.8246
X4.587Y-5.1246
X4.637Y-3.3496
X4.637Y-4.2496
X4.637Y-4.3996
X4.712Y-3.8246
X4.712Y-4.1496
X4.712Y-4.8746
X4.987Y-3.2496
X4.987Y-3.3496
X4.987Y-3.4496
X4.987Y-3.5496
X4.987Y-3.6496
X4.987Y-3.7496
X4.987Y-3.8496
X4.987Y-3.9496
X4.987Y-4.1996
X4.987Y-4.2996
X4.987Y-4.3996
X4.987Y-4.4996
X4.987Y-4.5996
X4.987Y-4.6996
X4.987Y-4.7996
X4.987Y-4.8996
X4.987Y-4.9996
X5.262Y-3.7746
X5.262Y-4.1246
X5.262Y-4.8246
X5.312Y-3.3496
X5.387Y-3.4246
X5.387Y-3.8246
X5.387Y-4.1996
X5.387Y-4.4746
X5.387Y-4.8746
X5.412Y-3.6746
X5.412Y-3.8996
X5.412Y-4.7246
X5.412Y-4.9496
X5.437Y-3.6246
X5.437Y-3.9496
X5.437Y-4.6746
X5.437Y-4.9996
X5.462Y-3.5746
X5.462Y-4.0496
X5.462Y-4.6246
X5.462Y-5.0996
X5.487Y-3.7746
X5.487Y-4.0746
X5.487Y-4.8246
X5.487Y-5.1246
X5.537Y-3.3496
X5.537Y-4.2496
X5.537Y-4.3996
X5.612Y-3.8246
X5.612Y-4.1496
X5.612Y-4.8746
X5.887Y-3.2496
X5.887Y-3.3496
X5.887Y-3.4496
X5.887Y-3.5496
X5.887Y-3.6496
X5.887Y-3.7496
X5.887Y-3.8496
X5.887Y-3.9496
X5.887Y-4.1996
X5.887Y-4.2996
X5.887Y-4.3996
X5.887Y-4.4996
X5.887Y-4.5996
X5.887Y-4.6996
X5.887Y-4.7996
X5.887Y-4.8996
X5.887Y-4.9996
X6.162Y-3.7746
X6.162Y-4.1246
X6.162Y-4.8246
X6.237Y-3.3496
X6.287Y-3.4246
X6.287Y-3.8246
X6.287Y-4.1996
X6.287Y-4.4746
X6.287Y-4.8746
X6.312Y-3.6746
X6.312Y-3.8996
X6.312Y-4.7246
X6.312Y-4.9496
X6.337Y-3.6246
X6.337Y-3.9496
X6.337Y-4.6746
X6.337Y-4.9996
X6.362Y-3.5746
X6.362Y-4.0496
X6.362Y-4.6246
X6.362Y-5.0996
X6.387Y-3.7746
X6.387Y-4.0746
X6.387Y-4.8246
X6.387Y-5.1246
X6.437Y-3.3496
X6.437Y-4.2496
X6.437Y-4.3996
X6.512Y-3.8246
X6.512Y-4.1496
X6.512Y-4.8746
X6.787Y-3.2496
X6.787Y-3.3496
X6.787Y-3.4496
X6.787Y-3.5496
X6.787Y-3.6496
X6.787Y-3.7496
X6.787Y-3.8496
X6.787Y-3.9496
X6.787Y-4.1996
X6.787Y-4.2996
X6.787Y-4.3996
X6.787Y-4.4996
X6.787Y-4.5996
X6.787Y-4.6996
X6.787Y-4.7996
X6.787Y-4.8996
X6.787Y-4.9996
X7.012Y-4.1246
X7.062Y-3.5246
X7.062Y-3.7496
X7.062Y-4.8246
X7.087Y-4.1746
X7.137Y-3.3496
X7.187Y-3.4246
X7.187Y-3.8246
X7.187Y-4.1996
X7.187Y-4.4746
X7.187Y-4.8746
X7.212Y-3.6746
X7.212Y-3.8996
X7.212Y-4.7246
X7.212Y-4.9496
X7.237Y-3.6246
X7.237Y-3.9496
X7.237Y-4.1732
X7.237Y-4.5746
X7.237Y-4.6746
X7.237Y-4.9996
X7.262Y-3.5746
X7.262Y-4.0496
X7.262Y-4.6246
X7.262Y-5.0996
X7.287Y-3.7746
X7.287Y-4.0996
X7.287Y-4.8246
X7.287Y-5.1246
X7.337Y-3.3496
X7.337Y-4.2496
X7.337Y-4.3996
X7.412Y-3.8246
X7.412Y-4.1496
X7.412Y-4.8746
X7.687Y-3.2496
X7.687Y-3.3496
X7.687Y-3.4496
X7.687Y-3.5496
X7.687Y-3.6496
X7.687Y-3.7496
X7.687Y-3.8496
X7.687Y-3.9496
X7.687Y-4.1996
X7.687Y-4.2996
X7.687Y-4.3996
X7.687Y-4.4996
X7.687Y-4.5996
X7.687Y-4.6996
X7.687Y-4.7996
X7.687Y-4.8996
X7.687Y-4.9996
X7.862Y-4.0996
X7.912Y-5.1246
X7.962Y-4.0496
X8.037Y-4.1996
X8.062Y-3.8746
X8.212Y-4.0996
T2
X5.087Y-4.3496
X5.087Y-4.4496
X5.087Y-4.5496
X5.087Y-4.6496
X5.087Y-4.7496
X5.087Y-4.8496
X5.087Y-4.9496
X5.087Y-5.0496
X5.987Y-3.2996
X5.987Y-3.3996
X5.987Y-3.4996
X5.987Y-3.5996
X5.987Y-3.6996
X5.987Y-3.7996
X5.987Y-3.8996
X5.987Y-3.9996
X7.787Y-4.3496
X7.787Y-4.4496
X7.787Y-4.5496
X7.787Y-4.6496
X7.787Y-4.7496
X7.787Y-4.8496
X7.787Y-4.9496
X7.787Y-5.0496
X7.787Y-3.2996
X7.787Y-3.3996
X7.787Y-3.4996
X7.787Y-3.5996
X7.787Y-3.6996
X7.787Y-3.7996
X7.787Y-3.8996
X7.787Y-3.9996
X4.087Y-4.9496
X4.087Y-5.0496
X5.987Y-4.3496
X5.987Y-4.4496
X5.987Y-4.5496
X5.987Y-4.6496
X5.987Y-4.7496
X5.987Y-4.8496
X5.987Y-4.9496
X5.987Y-5.0496
X5.087Y-3.2996
X5.087Y-3.3996
X5.087Y-3.4996
X5.087Y-3.5996
X5.087Y-3.6996
X5.087Y-3.7996
X5.087Y-3.8996
X5.087Y-3.9996
X8.287Y-3.9496
X8.287Y-4.0496
X8.287Y-4.1496
X8.287Y-4.2496
X8.287Y-4.3496
X8.287Y-4.4496
X6.887Y-3.2996
X6.887Y-3.3996
X6.887Y-3.4996
X6.887Y-3.5996
X6.887Y-3.6996
X6.887Y-3.7996
X6.887Y-3.8996
X6.887Y-3.9996
X6.887Y-4.3496
X6.887Y-4.4496
X6.887Y-4.5496
X6.887Y-4.6496
X6.887Y-4.7496
X6.887Y-4.8496
X6.887Y-4.9496
X6.887Y-5.0496
X4.087Y-3.9496
X4.087Y-4.0496
X4.087Y-4.1496
X4.087Y-4.2496
X4.087Y-4.3496
X4.087Y-4.4496
T0
M30
